<svg width="28" height="28" viewBox="0 0 22 18" fill="currentColor" xmlns="http://www.w3.org/2000/svg">
<path fill-rule="evenodd" clip-rule="evenodd" d="M8.83342 0.333313H13.1667C17.252 0.333313 19.2952 0.333313 20.5637 1.60298C21.4781 2.51623 21.7337 3.8314 21.8053 6.02081H0.194915C0.266415 3.8314 0.522081 2.51623 1.43641 1.60298C2.705 0.333313 4.74817 0.333313 8.83342 0.333313ZM13.1667 17.6666H8.83342C4.74817 17.6666 2.705 17.6666 1.43641 16.397C0.166748 15.1284 0.166748 13.0852 0.166748 8.99998C0.166748 8.52115 0.166748 8.07048 0.168915 7.64581H21.8312C21.8334 8.07048 21.8334 8.52115 21.8334 8.99998C21.8334 13.0852 21.8334 15.1284 20.5637 16.397C19.2952 17.6666 17.252 17.6666 13.1667 17.6666ZM4.50008 12.5208C4.28459 12.5208 4.07793 12.6064 3.92556 12.7588C3.77318 12.9112 3.68758 13.1178 3.68758 13.3333C3.68758 13.5488 3.77318 13.7555 3.92556 13.9078C4.07793 14.0602 4.28459 14.1458 4.50008 14.1458H8.83342C9.0489 14.1458 9.25557 14.0602 9.40794 13.9078C9.56031 13.7555 9.64592 13.5488 9.64592 13.3333C9.64592 13.1178 9.56031 12.9112 9.40794 12.7588C9.25557 12.6064 9.0489 12.5208 8.83342 12.5208H4.50008ZM11.5417 12.5208C11.3263 12.5208 11.1196 12.6064 10.9672 12.7588C10.8149 12.9112 10.7292 13.1178 10.7292 13.3333C10.7292 13.5488 10.8149 13.7555 10.9672 13.9078C11.1196 14.0602 11.3263 14.1458 11.5417 14.1458H13.1667C13.3822 14.1458 13.5889 14.0602 13.7413 13.9078C13.8936 13.7555 13.9792 13.5488 13.9792 13.3333C13.9792 13.1178 13.8936 12.9112 13.7413 12.7588C13.5889 12.6064 13.3822 12.5208 13.1667 12.5208H11.5417Z" fill="currentColor"/>
</svg>
