<svg width="28" height="28" viewBox="0 0 20 20" fill="currentColor" xmlns="http://www.w3.org/2000/svg">
<path d="M17.5833 0.25H2.41667C1.225 0.25 0.25 1.225 0.25 2.41667V17.5833C0.25 18.775 1.225 19.75 2.41667 19.75H17.5833C18.775 19.75 19.75 18.775 19.75 17.5833V2.41667C19.75 1.225 18.775 0.25 17.5833 0.25ZM10 3.5C12.0908 3.5 13.7917 5.20083 13.7917 7.29167C13.7917 9.3825 12.0908 11.0833 10 11.0833C7.90917 11.0833 6.20833 9.3825 6.20833 7.29167C6.20833 5.20083 7.90917 3.5 10 3.5ZM17.5833 17.5833H2.41667V17.3342C2.41667 16.6625 2.72 16.0342 3.24 15.6225C5.0925 14.1383 7.44333 13.25 10 13.25C12.5567 13.25 14.9075 14.1383 16.76 15.6225C17.28 16.0342 17.5833 16.6733 17.5833 17.3342V17.5833Z" fill="currentColor"/>
</svg>
