<svg width="26" height="26" viewBox="0 0 26 26" fill="none" xmlns="http://www.w3.org/2000/svg">
<g clip-path="url(#clip0_18_578)">
<path d="M3.45046 1.25527C2.38056 1.25059 1.66946 1.27347 1.66946 1.27347C1.50074 1.2788 1.34072 1.34956 1.22324 1.47078C1.10577 1.59199 1.04005 1.75415 1.04 1.92295V3.24999H0.6422C0.471899 3.25006 0.308593 3.31774 0.188172 3.43816C0.0677512 3.55858 6.89059e-05 3.72189 0 3.89219L0 22.1078C6.89059e-05 22.2781 0.0677512 22.4414 0.188172 22.5618C0.308593 22.6822 0.471899 22.7499 0.6422 22.75H11.934C12.6168 23.2094 13.4958 23.1041 14.066 22.75H25.3578C25.5281 22.7499 25.6914 22.6822 25.8118 22.5618C25.9322 22.4414 25.9999 22.2781 26 22.1078V3.89219C25.9999 3.72189 25.9322 3.55858 25.8118 3.43816C25.6914 3.31774 25.5281 3.25006 25.3578 3.24999H24.96V1.92295C24.9599 1.75411 24.8942 1.59191 24.7767 1.47069C24.6591 1.34947 24.499 1.27874 24.3303 1.27347C24.3303 1.27347 23.6194 1.25059 22.5493 1.25527C21.4796 1.25995 20.0512 1.29193 18.616 1.40165C17.1808 1.51085 15.7409 1.69285 14.5972 2.02617C14.0252 2.19257 13.5244 2.39199 13.1147 2.68631C13.0757 2.71439 13.0377 2.74533 13 2.77627C12.9628 2.74505 12.9245 2.71504 12.8853 2.68631C12.4756 2.39199 11.9748 2.19283 11.4028 2.02617C10.2591 1.69311 8.8192 1.51111 7.384 1.40165C5.9488 1.29193 4.52036 1.25995 3.45046 1.25527ZM22.5464 1.90527C23.6046 1.90059 24.31 1.92295 24.31 1.92295V20.123C24.31 20.123 14.4498 19.7397 13.1422 21.7573C13.0515 21.893 12.961 21.9016 12.8705 21.7776C11.6152 19.7374 1.69 20.123 1.69 20.123V1.92295C1.69 1.92295 2.39538 1.90111 3.45358 1.90579C6.62818 1.91983 12.9797 2.17619 13 4.00295C13.0203 2.17619 19.3718 1.91931 22.5464 1.90527ZM1.2844 20.631C1.40634 20.7284 1.55926 20.7787 1.71522 20.7727C1.71522 20.7727 4.5019 20.6656 7.27376 20.8676C8.65956 20.9685 10.0433 21.1518 11.0224 21.4396C11.0497 21.4479 11.0731 21.457 11.0999 21.4653H1.28466V20.6307L1.2844 20.631ZM24.7151 20.631V21.4653H14.8998C14.9266 21.457 14.95 21.4479 14.9773 21.4398C15.9565 21.1518 17.3402 20.9685 18.726 20.8676C21.4976 20.6656 24.2848 20.7727 24.2848 20.7727C24.4407 20.7786 24.5932 20.7284 24.7151 20.631Z" fill="currentColor"/>
<path d="M22.5439 2.55575C21.4974 2.56043 20.1035 2.59137 18.7146 2.69745C17.3257 2.80353 15.9396 2.98917 14.9602 3.27439C14.4706 3.41687 14.0856 3.58951 13.8729 3.74213C13.6605 3.89449 13.6506 3.95663 13.6501 4.00993V7.05999C13.6618 7.05375 13.6761 7.04699 13.6789 7.04179C13.6821 7.0355 13.6866 7.02999 13.6921 7.02567C13.6976 7.02134 13.7041 7.01832 13.7109 7.01683C13.7512 7.00799 13.8105 7.04543 13.8451 7.11147C13.8875 7.19207 13.8877 7.20585 13.8503 7.27267C13.8274 7.31323 13.7681 7.37407 13.7187 7.40735C13.6865 7.42919 13.6706 7.44713 13.6501 7.46637V11.5876C13.6969 11.5101 13.7057 11.4301 13.6771 11.3154C13.6485 11.2015 13.6511 11.1849 13.7299 11.0271C13.8066 10.8729 13.881 10.7684 14.0224 10.6168C14.0542 10.5799 14.0733 10.5338 14.0767 10.4852C14.0767 10.4384 14.1087 10.3747 14.1659 10.3079C14.3282 10.1186 14.3451 10.01 14.2075 10.0344C14.1217 10.05 14.1225 10.056 14.1189 9.73019C14.1173 9.59499 14.1282 9.52427 14.1537 9.49879C14.1766 9.47591 14.266 9.45355 14.3859 9.44029L14.5809 9.41845V9.31679C14.5809 9.19407 14.5148 9.08903 14.4449 9.10151C14.3812 9.11295 14.3482 9.03859 14.3981 8.99595C14.4274 8.97566 14.4626 8.96578 14.4982 8.96787C14.5523 8.97177 14.559 8.96449 14.5463 8.91561C14.5338 8.86777 14.5411 8.85893 14.5895 8.86283C14.6446 8.86699 14.7642 8.78223 14.7369 8.75831C14.7234 8.74661 14.4847 8.82747 14.3705 8.88207C14.3081 8.91223 14.3079 8.91067 14.3503 8.83943C14.383 8.78457 14.3867 8.75883 14.364 8.73439C14.3414 8.70969 14.3464 8.69097 14.3848 8.65379C14.4238 8.61557 14.4264 8.60595 14.3955 8.60985C14.3674 8.61375 14.3747 8.59503 14.4199 8.54745C14.4771 8.48765 14.4797 8.47621 14.4444 8.44527C14.4088 8.41459 14.4002 8.41667 14.3672 8.46425C14.3489 8.49008 14.3353 8.51895 14.3271 8.54953C14.3253 8.56695 14.3224 8.60621 14.3198 8.63741C14.3172 8.67693 14.2845 8.70943 14.2101 8.74713C14.0705 8.81759 14.0593 8.81863 14.0432 8.75623C14.0354 8.72685 14.0411 8.70085 14.0559 8.69825C14.071 8.69565 14.0757 8.66523 14.0663 8.62883C14.0442 8.54017 14.0736 8.46503 14.1261 8.47699C14.149 8.48219 14.1594 8.47829 14.1488 8.46919C14.1176 8.44189 14.2086 8.34179 14.2606 8.34699C14.2928 8.34985 14.3133 8.33191 14.323 8.29109C14.3308 8.25781 14.3269 8.23233 14.3139 8.23467C14.2879 8.23935 14.31 8.08127 14.3469 7.99911C14.3601 7.96921 14.4007 7.94087 14.4392 7.93411C14.494 7.92423 14.5052 7.93307 14.494 7.98013C14.4836 8.02329 14.4925 8.03577 14.5302 8.02901C14.5874 8.01861 14.5939 8.05163 14.5525 8.14029C14.5317 8.18501 14.5336 8.21049 14.5585 8.23779C14.5991 8.28173 14.6487 8.36025 14.6859 8.44033C14.701 8.47257 14.7314 8.50273 14.754 8.50793C14.7847 8.51469 14.7904 8.54121 14.778 8.61505C14.7616 8.70995 14.7629 8.71177 14.8237 8.67147C14.8583 8.64833 14.9048 8.58697 14.9267 8.53419C14.9563 8.46321 14.9919 8.42759 15.0658 8.39509C15.1516 8.35765 15.1648 8.34049 15.1648 8.27289C15.1648 8.22947 15.1537 8.19593 15.1388 8.19853C15.0806 8.20893 15.1123 8.04045 15.1823 7.97051C15.2205 7.93203 15.261 7.89901 15.272 7.89693C15.3112 7.88991 15.3188 8.06853 15.2816 8.11975C15.2088 8.22011 15.2543 8.27679 15.3817 8.24377C15.4212 8.23337 15.461 8.23649 15.4701 8.25027C15.4807 8.26665 15.5117 8.25807 15.558 8.22557C15.67 8.14627 15.7753 8.10701 15.7753 8.14497C15.7753 8.22037 15.8778 8.05605 15.891 7.95881C15.9186 7.75757 15.9407 7.66605 15.9641 7.66189C15.9771 7.65929 16.0117 7.62861 16.0408 7.59273C16.0805 7.54798 16.1346 7.51854 16.1937 7.50953C16.2483 7.49939 16.3101 7.47625 16.3317 7.45831C16.4105 7.39201 16.2766 7.40085 16.1547 7.46975C16.047 7.53085 16.0319 7.53397 15.9727 7.50381C15.9373 7.48561 15.9069 7.46325 15.9069 7.45363L15.8939 7.30179C15.8837 7.18115 15.8913 7.15541 15.9682 7.04959C16.1453 6.80545 16.1521 6.79271 16.1185 6.75631C16.1085 6.74651 16.0964 6.73907 16.0831 6.73453C16.0699 6.72998 16.0558 6.72845 16.0418 6.73005C15.9922 6.73889 15.9238 6.87773 15.95 6.91725C15.9589 6.93103 15.911 7.00513 15.844 7.08183C15.6911 7.25603 15.6523 7.38135 15.7244 7.46481C15.7951 7.54645 15.7862 7.69387 15.7098 7.70765C15.69 7.71103 15.663 7.78383 15.6448 7.88575C15.6193 8.02615 15.6035 8.05995 15.5616 8.06775C15.533 8.07269 15.5101 8.08933 15.5101 8.10467C15.5101 8.12001 15.4859 8.13639 15.4568 8.14159C15.4277 8.14679 15.404 8.16395 15.404 8.17929C15.404 8.22531 15.324 8.22479 15.306 8.17877C15.2961 8.15329 15.3073 8.11897 15.3346 8.09349C15.3773 8.05319 15.377 8.04149 15.3294 7.90213L15.2787 7.75393L15.1981 7.83895C15.0603 7.98481 14.9927 7.96037 14.9649 7.75523C14.95 7.64793 14.945 7.53948 14.9501 7.43127C14.9516 7.41125 14.9649 7.40007 14.9795 7.40683C14.994 7.41385 15.0065 7.40267 15.0065 7.38265C15.0068 7.36237 15.0559 7.29997 15.1152 7.24329C15.2067 7.15619 15.3887 6.87747 15.3913 6.82209C15.3929 6.78127 15.5213 6.51711 15.5411 6.51373C15.553 6.51165 15.5629 6.49371 15.5629 6.47343C15.5629 6.45341 15.5842 6.40869 15.6097 6.37463C15.6352 6.34031 15.6718 6.27739 15.6911 6.23475C15.7103 6.19237 15.7667 6.12685 15.8169 6.08967C15.8671 6.05249 15.9084 6.01089 15.9084 5.99763C15.9084 5.98463 15.9357 5.97683 15.9698 5.97943C16.0275 5.98437 16.1188 5.90065 16.1003 5.86009C16.0964 5.85177 16.1201 5.83695 16.1531 5.82759C16.3494 5.77039 16.3866 5.76987 16.4511 5.82213C16.5155 5.87387 16.5166 5.87881 16.4719 5.93887C16.4266 5.99997 16.4277 5.99997 16.5135 5.96513C16.5891 5.93471 16.6037 5.93731 16.6162 5.98515C16.6258 6.02155 16.652 6.03715 16.6929 6.02961C16.7272 6.02363 16.7948 6.04677 16.8426 6.08109C16.8907 6.11515 16.9633 6.15909 17.0041 6.17911C17.1367 6.24281 17.1497 6.38763 17.0322 6.48929C16.9776 6.53635 16.9516 6.54233 16.8431 6.53089C16.774 6.52361 16.6996 6.50697 16.6778 6.49449C16.6497 6.47837 16.6513 6.48591 16.683 6.51919C16.7074 6.54519 16.728 6.60759 16.7254 6.65725C16.7228 6.75605 16.7932 6.84705 16.8616 6.83353C16.8977 6.82651 16.8967 6.82235 16.8569 6.80493C16.8314 6.79401 16.8106 6.75423 16.8106 6.71679C16.8106 6.63879 16.8288 6.63047 16.9016 6.67519C16.9755 6.72043 17.0205 6.70561 17.0036 6.64113C16.9835 6.56365 17.1219 6.39621 17.2012 6.40245C17.2576 6.40687 17.2591 6.40167 17.2438 6.26127C17.235 6.18093 17.216 6.10163 17.2017 6.08499C17.1827 6.06315 17.1895 6.05249 17.2256 6.04651C17.3826 6.01973 17.4734 6.10891 17.38 6.19731C17.3551 6.22123 17.3416 6.25373 17.352 6.26933C17.3813 6.31353 17.4419 6.29143 17.4596 6.22981C17.4752 6.17625 17.6606 5.99633 17.7092 5.98749C17.7222 5.98515 17.7477 5.96201 17.7659 5.93575C17.7857 5.90846 17.8141 5.8886 17.8465 5.87933C17.8824 5.87309 17.8902 5.88713 17.8792 5.93627C17.8673 5.98957 17.8714 5.99425 17.9006 5.96071C17.9265 5.93451 17.9594 5.91644 17.9955 5.90871C18.0282 5.90299 18.0628 5.88349 18.0727 5.86529C18.0823 5.84709 18.1169 5.83409 18.1499 5.83669C18.1824 5.83929 18.2167 5.83253 18.2253 5.82161C18.2508 5.79041 18.1928 5.70643 18.1515 5.71397C18.1086 5.72151 18.0724 5.63155 18.0984 5.58241C18.1101 5.56031 18.1356 5.56421 18.173 5.59281C18.2042 5.61699 18.29 5.64663 18.3626 5.65911C18.4354 5.67133 18.5412 5.71241 18.5976 5.75011C18.6969 5.81589 18.6998 5.81615 18.6816 5.75531C18.6712 5.72073 18.6442 5.68043 18.6221 5.66613C18.5953 5.64871 18.5875 5.61569 18.5987 5.56655C18.608 5.52599 18.6018 5.47113 18.5841 5.44461C18.5571 5.40431 18.5633 5.37701 18.6236 5.27561C18.6629 5.20931 18.6946 5.12845 18.6946 5.09595C18.6946 5.06345 18.7107 5.01743 18.7297 4.99377C18.7516 4.96486 18.7691 4.93289 18.7817 4.89887C18.7913 4.87027 18.8165 4.84427 18.8373 4.84037C18.8951 4.82997 18.9109 4.90537 18.8597 4.94593C18.8217 4.97609 18.8259 4.97999 18.8873 4.96985C18.9507 4.95945 18.9601 4.96881 18.9601 5.04291C18.9601 5.08971 18.9484 5.15341 18.9341 5.18461C18.9153 5.22439 18.9164 5.24623 18.938 5.25637C18.9559 5.26469 18.9614 5.25949 18.9517 5.24467C18.9424 5.23037 18.9614 5.17889 18.9939 5.12975C19.0264 5.08087 19.0492 5.02003 19.0451 4.99455C19.0409 4.96959 19.0492 4.93865 19.0638 4.92695C19.0934 4.90225 19.1382 4.97297 19.134 5.03797C19.1301 5.09829 19.1782 5.11597 19.2112 5.06657C19.2671 4.98259 19.3467 4.96829 19.4218 5.02757C19.4616 5.05929 19.5063 5.08243 19.5224 5.07957C19.5383 5.07697 19.5214 5.05045 19.484 5.02081C19.4392 4.98545 19.4091 4.92435 19.3974 4.84505C19.3771 4.70517 19.3792 4.70335 19.6062 4.63315C19.7492 4.58895 19.7882 4.55541 19.7297 4.52811C19.6875 4.50835 19.6979 4.38069 19.7424 4.37263C19.7658 4.36847 19.7754 4.35079 19.7661 4.32713C19.7557 4.30035 19.7674 4.28475 19.8038 4.27825C19.8329 4.27305 19.8636 4.25017 19.8714 4.22755C19.8792 4.20467 19.9312 4.16229 19.9871 4.13291C20.0427 4.10379 20.0999 4.06245 20.1145 4.04113C20.155 3.98211 20.2866 3.93531 20.329 3.96443C20.3498 3.97899 20.3862 3.97717 20.4127 3.96027C20.4384 3.94415 20.4894 3.92829 20.5258 3.92543C20.5793 3.92101 20.5856 3.91451 20.5588 3.89033C20.5084 3.84483 20.519 3.81753 20.5913 3.80453C20.6381 3.79621 20.6524 3.78165 20.6417 3.75409C20.623 3.70651 20.7249 3.51151 20.7954 3.45925C20.804 3.45304 20.8134 3.44821 20.8235 3.44495C20.8411 3.43929 20.8598 3.43787 20.8781 3.44079C20.9327 3.44937 20.9803 3.49227 20.9678 3.54453C20.9592 3.58015 20.968 3.59757 20.9925 3.59315C21.0135 3.58951 21.038 3.60433 21.0463 3.62565C21.0559 3.65035 21.0973 3.65893 21.1581 3.64853C21.3037 3.62383 21.4059 3.71223 21.4212 3.87603C21.4337 4.01045 21.4191 4.03801 21.2236 4.24783C21.1799 4.29489 21.1797 4.29749 21.2291 4.29853C21.2577 4.29905 21.291 4.31205 21.3019 4.32739C21.3159 4.34741 21.3292 4.34221 21.3479 4.30919C21.3703 4.27019 21.377 4.27175 21.3903 4.32037C21.4033 4.36821 21.4173 4.37237 21.4667 4.34377C21.5489 4.29645 21.747 4.31465 21.7288 4.36769C21.7197 4.39421 21.746 4.40773 21.8086 4.40877C21.9225 4.41085 21.9584 4.38407 21.9584 4.29749C21.9584 4.20649 21.9958 4.18335 22.0889 4.21741C22.1323 4.23301 22.1903 4.24211 22.2179 4.23717C22.3151 4.21975 22.3583 4.30165 22.3515 4.49041C22.346 4.63653 22.3538 4.67059 22.3973 4.69607C22.4454 4.72467 22.4508 4.71947 22.4714 4.63107C22.5015 4.50133 22.5317 4.46987 22.5668 4.53279C22.5897 4.57361 22.6136 4.57881 22.6723 4.55619C22.7171 4.53877 22.7561 4.53799 22.7672 4.55515C22.7813 4.57621 22.7977 4.57153 22.8296 4.53513C22.8538 4.50809 22.8861 4.48573 22.9004 4.48573C22.9147 4.48625 22.93 4.46389 22.9349 4.43633C22.9399 4.40851 22.9313 4.38771 22.9157 4.39057C22.9001 4.39317 22.8871 4.37679 22.8871 4.35417C22.8871 4.33077 22.91 4.30867 22.9381 4.30373C22.9659 4.29853 22.9934 4.27955 22.9989 4.26161C23.0145 4.20987 23.5194 4.24991 23.5504 4.30529C23.5641 4.32947 23.5686 4.35781 23.56 4.36821C23.5517 4.37861 23.5756 4.38979 23.6138 4.39291C23.6367 4.39499 23.6481 4.40227 23.6601 4.40981V2.56615C23.3668 2.56017 23.2129 2.55237 22.5439 2.55575ZM20.6069 3.38411C20.6373 3.37865 20.6547 3.38801 20.6459 3.40491C20.6243 3.44469 20.5523 3.45769 20.5523 3.42155C20.5523 3.40621 20.577 3.38931 20.6069 3.38411ZM23.0522 3.47251C23.0725 3.47433 23.1029 3.48759 23.1536 3.51411C23.2191 3.54791 23.3026 3.57131 23.3392 3.56585C23.411 3.55545 23.5283 3.57885 23.4848 3.59523C23.4703 3.60069 23.4939 3.60641 23.5376 3.60823C23.6255 3.61239 23.6419 3.66829 23.5722 3.72679C23.5158 3.77437 23.3392 3.72497 23.3392 3.66179C23.3392 3.60095 23.2987 3.61707 23.2183 3.70963C23.1796 3.75383 23.1164 3.79569 23.0777 3.80245C23.0387 3.80921 22.9693 3.82975 22.9232 3.84821C22.852 3.87655 22.8325 3.87161 22.7943 3.81701C22.7111 3.69923 22.7969 3.48421 22.8972 3.49201C22.9133 3.49356 22.9285 3.4998 22.9409 3.50995C22.9843 3.54349 22.9916 3.54245 23.0122 3.50033C23.022 3.48005 23.0319 3.47043 23.0522 3.47225V3.47251ZM22.7017 3.59419C22.7163 3.59159 22.7288 3.62695 22.7288 3.67297C22.7288 3.71873 22.7163 3.75877 22.7017 3.76137C22.6872 3.76397 22.6755 3.72861 22.6755 3.68259C22.6755 3.63683 22.6872 3.59679 22.7017 3.59419ZM22.9958 3.91399C23.0228 3.91919 23.0465 3.95663 23.0304 3.98679C23.0231 4.00031 23.0392 4.00759 23.0665 4.00239C23.1289 3.99147 23.1796 4.03437 23.1796 4.09911C23.1796 4.13759 23.1598 4.15137 23.0933 4.16099C23.0494 4.16759 23.005 4.1702 22.9607 4.16879C22.9105 4.16359 22.8965 4.11601 22.943 4.10769C22.9607 4.10457 22.9654 4.07311 22.9547 4.02475C22.9443 3.97717 22.9495 3.93713 22.969 3.92127C22.9727 3.91818 22.977 3.91595 22.9816 3.91474C22.9862 3.91352 22.9911 3.91336 22.9958 3.91425V3.91399ZM18.6582 4.03957C18.6969 4.02891 18.7248 4.04529 18.7362 4.09079C18.7614 4.19089 18.7107 4.26395 18.5394 4.37523C18.4466 4.43555 18.3465 4.52655 18.2976 4.59623L18.1616 4.79123C18.1325 4.83283 18.0722 4.95477 18.0274 5.06293C17.9357 5.28523 17.9372 5.41029 18.0326 5.49973C18.0625 5.52833 18.0781 5.56109 18.0654 5.57175C18.0352 5.59671 17.8829 5.61907 17.8517 5.60295C17.8384 5.59645 17.8194 5.55823 17.8096 5.51793C17.7976 5.46853 17.7742 5.44773 17.7391 5.45397C17.7004 5.46073 17.6861 5.44435 17.6861 5.39183C17.6861 5.35153 17.698 5.32605 17.7131 5.33307C17.7383 5.34529 17.7503 5.30629 17.7409 5.23557C17.7383 5.21555 17.7576 5.16225 17.7836 5.11675C17.8096 5.07125 17.8278 5.02003 17.8244 5.00287C17.8207 4.98597 17.8434 4.92227 17.8746 4.86117C17.9065 4.79877 17.9253 4.72727 17.9172 4.69659C17.9078 4.66097 17.918 4.63393 17.9471 4.61755C17.9715 4.60377 18.0467 4.52317 18.1138 4.43867C18.2178 4.30815 18.2505 4.28345 18.3327 4.27123C18.4076 4.26005 18.4492 4.23301 18.517 4.15163C18.5701 4.08845 18.6195 4.05023 18.6582 4.03983V4.03957ZM15.9693 4.21195C16.0154 4.20591 16.0622 4.21731 16.1003 4.24393L16.1567 4.28917L16.0946 4.36977C16.0348 4.44751 15.9407 4.49717 15.975 4.43347C15.9838 4.41657 15.9688 4.40669 15.9412 4.41163C15.9014 4.41865 15.891 4.40045 15.8936 4.32271C15.8952 4.23509 15.903 4.22391 15.9693 4.21195ZM15.7488 4.25927C15.7826 4.25823 15.8026 4.26135 15.8026 4.26941C15.8024 4.27703 15.7997 4.28437 15.7948 4.29025C15.79 4.29614 15.7833 4.30024 15.7758 4.30191C15.7613 4.30451 15.7493 4.32479 15.7493 4.34715C15.7493 4.36951 15.729 4.46103 15.7041 4.55021C15.656 4.72259 15.6016 4.76757 15.5741 4.65785C15.565 4.62145 15.5426 4.59415 15.5239 4.59753C15.4805 4.60533 15.4503 4.49275 15.4878 4.46181C15.5054 4.44725 15.5065 4.43633 15.4904 4.43295C15.4761 4.42983 15.4558 4.40045 15.4456 4.36795C15.4274 4.31049 15.4326 4.30763 15.6146 4.27487V4.27539C15.6685 4.26603 15.7153 4.26031 15.7488 4.25927ZM21.1516 4.40799C21.1534 4.40149 21.1454 4.40357 21.1277 4.41371C21.1009 4.42853 21.0679 4.44257 21.0546 4.44491C21.0411 4.44751 21.0302 4.46779 21.0302 4.49067C21.0302 4.54527 21.0367 4.54293 21.1123 4.45817C21.1274 4.44313 21.1407 4.42627 21.1516 4.40799ZM19.5534 5.22855C19.5463 5.2453 19.5416 5.26299 19.5396 5.28107C19.5297 5.33307 19.5331 5.35127 19.55 5.33073C19.565 5.30633 19.5705 5.27729 19.5656 5.24909C19.5617 5.23063 19.5578 5.22361 19.5534 5.22855ZM18.9749 5.31149C18.9653 5.32319 18.9611 5.38065 18.9608 5.48751C18.9603 5.69655 18.9985 5.79977 19.0446 5.71475C19.0576 5.69083 19.0492 5.67575 19.0227 5.67445C18.9874 5.67289 18.9829 5.64481 18.9959 5.51195C19.0045 5.42381 18.9998 5.33515 18.9861 5.31487C18.9816 5.30863 18.9783 5.30785 18.9749 5.31149ZM19.0131 5.81121C18.9985 5.81381 18.9866 5.83981 18.9866 5.86945C18.9866 5.89909 18.9749 5.93367 18.9603 5.94563C18.9338 5.96747 18.9226 6.04963 18.9465 6.04521C18.9536 6.04391 18.977 6.00283 18.9993 5.95369C19.0464 5.85021 19.0505 5.80445 19.0131 5.81121ZM17.5613 5.83149C17.5737 5.82941 17.5873 5.83799 17.6107 5.85567C17.6575 5.89207 17.6575 5.89805 17.6159 5.95317C17.5706 6.01401 17.5233 6.03507 17.4921 6.00803C17.4622 5.98203 17.4721 5.92509 17.5171 5.87023C17.5368 5.84579 17.5488 5.83331 17.5613 5.83123V5.83149ZM18.8917 6.07173C18.8786 6.07253 18.8659 6.07598 18.8542 6.08187C18.8251 6.09487 18.8009 6.11047 18.8009 6.11619C18.8009 6.12217 18.8249 6.12243 18.8542 6.11723C18.8834 6.11203 18.907 6.09643 18.907 6.08291C18.907 6.07589 18.9013 6.07199 18.8917 6.07173ZM23.586 6.25347C23.5714 6.25217 23.5465 6.25971 23.5054 6.27531C23.4505 6.29611 23.3447 6.32237 23.2701 6.33407C23.1354 6.35539 23.1336 6.35721 22.9937 6.55455C22.9165 6.66375 22.8166 6.79375 22.7714 6.84341C22.7108 6.91023 22.7012 6.93207 22.734 6.92661C22.7652 6.92496 22.796 6.93539 22.8198 6.95573C22.8426 6.97575 22.8619 6.97861 22.8619 6.96223C22.8619 6.91803 22.9565 6.90945 22.9945 6.95053C23.0379 6.99785 23.111 6.98485 23.0907 6.93337C23.0818 6.91049 23.0907 6.89177 23.1115 6.88813C23.1539 6.88059 23.1796 6.96093 23.1796 7.10185C23.1796 7.15749 23.1983 7.25265 23.2204 7.31427C23.2651 7.43959 23.2563 7.47261 23.1897 7.42685C23.1487 7.39851 23.1463 7.40735 23.1614 7.54021C23.1708 7.62185 23.1676 7.68009 23.1544 7.67385C23.1414 7.66761 23.1227 7.67775 23.1128 7.69621C23.0837 7.75055 23.2079 7.84753 23.2675 7.81685C23.3039 7.79839 23.3135 7.80177 23.2995 7.82803C23.2883 7.84883 23.2956 7.87327 23.3151 7.88263C23.3418 7.89485 23.3333 7.90889 23.2813 7.93879C23.243 7.96089 23.2035 7.99521 23.1934 8.01445C23.1825 8.03473 23.1466 8.04721 23.1086 8.04409C23.0493 8.03889 23.0452 8.04409 23.0644 8.09817C23.0941 8.18189 23.0878 8.30097 23.0431 8.46945C23.0119 8.58775 22.9911 8.62077 22.9269 8.65223C22.8774 8.67708 22.829 8.70424 22.7821 8.73361C22.7457 8.75701 22.7038 8.77989 22.6892 8.78561C22.6042 8.81525 22.4898 8.91015 22.4651 8.97125C22.4331 9.05081 22.384 9.04613 22.384 8.96345C22.384 8.93381 22.372 8.91145 22.3575 8.91405C22.3044 8.92341 22.3328 8.85789 22.4303 8.74687C22.501 8.66575 22.5546 8.62831 22.6164 8.61739C22.6833 8.60517 22.7108 8.58463 22.734 8.52691C22.7535 8.47855 22.7852 8.44813 22.825 8.44111C22.9071 8.42629 22.9446 8.33607 22.9446 8.15251C22.9446 8.03681 22.9573 7.98611 22.9973 7.93983C23.0426 7.88783 23.0525 7.83063 23.0644 7.53943C23.074 7.30465 23.0696 7.20091 23.0496 7.20455C23.034 7.20715 23.0207 7.25395 23.0207 7.30803C23.0207 7.44713 22.9516 7.60703 22.7688 7.89043C22.6661 8.05007 22.5824 8.11663 22.5059 8.09921C22.4667 8.09063 22.3837 8.18241 22.3837 8.23493C22.3837 8.25183 22.3533 8.29629 22.3161 8.33373L22.2478 8.40185L22.3042 8.47257C22.3424 8.51937 22.3583 8.57475 22.3525 8.63715C22.3453 8.71671 22.3294 8.73803 22.2449 8.78379L22.1453 8.83761L22.1417 8.73569C22.139 8.6898 22.139 8.64378 22.1417 8.59789C22.1443 8.57839 22.1289 8.57293 22.1079 8.58541C22.0538 8.61661 22.0299 8.56643 22.0639 8.49389C22.0886 8.44163 22.0847 8.43409 22.0377 8.44267C22.0075 8.44787 21.9532 8.47803 21.9168 8.50975C21.8349 8.58073 21.8159 8.56695 21.8513 8.46347L21.878 8.38365L21.774 8.48063C21.6778 8.57033 21.6734 8.58073 21.7122 8.61869C21.7387 8.64469 21.7647 8.64885 21.7831 8.62935C21.8182 8.59295 21.9584 8.59139 21.9584 8.62753C21.9584 8.64131 21.9365 8.66497 21.9111 8.67953C21.8764 8.70248 21.845 8.73003 21.8177 8.76143C21.772 8.81421 21.7727 8.82201 21.8471 8.94135C21.9035 9.03157 21.9183 9.07915 21.9004 9.11607C21.8851 9.14831 21.8861 9.16521 21.903 9.16209C21.9703 9.15013 21.7605 9.54169 21.6344 9.66389C21.5863 9.71043 21.4748 9.78193 21.3866 9.82327C21.2468 9.88905 21.226 9.90777 21.221 9.97121C21.2106 10.1036 21.1009 10.1938 21.0642 10.1002C21.0533 10.0724 21.0689 10.0344 21.1084 9.99409C21.1422 9.95925 21.1625 9.92493 21.1539 9.91739C21.1243 9.89139 21.0161 9.95769 20.9813 10.023C20.9501 10.0814 20.9574 10.0978 21.0546 10.1909C21.1472 10.2801 21.1623 10.3115 21.1623 10.4205C21.1623 10.5318 21.1532 10.5526 21.0889 10.5936C21.0472 10.6209 21.0107 10.6555 20.9813 10.6958C20.9345 10.7702 20.8703 10.7777 20.8703 10.7088C20.8703 10.6776 20.8529 10.6568 20.83 10.6607C20.8184 10.6624 20.8067 10.6602 20.7965 10.6545C20.7863 10.6488 20.7782 10.64 20.7736 10.6293C20.7652 10.6077 20.7416 10.5929 20.7216 10.5968C20.701 10.6004 20.6849 10.584 20.6849 10.5611C20.6849 10.5383 20.6724 10.5222 20.6579 10.5248C20.6274 10.53 20.6222 10.7809 20.6519 10.8186C20.6623 10.8323 20.7028 10.8583 20.7411 10.877C20.7619 10.8887 20.78 10.9045 20.7945 10.9235C20.8089 10.9424 20.8193 10.9642 20.825 10.9873C20.8328 11.0289 20.8477 11.0892 20.8581 11.1217C20.8731 11.1695 20.8666 11.1828 20.8243 11.1904C20.7452 11.2044 20.6391 11.104 20.6072 10.9852C20.5916 10.927 20.5604 10.8672 20.5385 10.8521C20.5117 10.8339 20.5 10.7767 20.5026 10.6761C20.5047 10.5747 20.4928 10.5157 20.4644 10.4912C20.4383 10.4667 20.4183 10.4364 20.4059 10.4028C20.3877 10.3461 20.3526 10.3399 20.3264 10.389C20.3173 10.4059 20.2866 10.4241 20.2582 10.4291C20.2182 10.4363 20.207 10.4187 20.207 10.3506C20.2031 10.2913 20.1817 10.2345 20.1454 10.1875C20.1137 10.1498 20.0868 10.1084 20.0653 10.064C20.0515 10.0276 20.0385 10.0245 20.0125 10.0518C19.9936 10.0718 19.9397 10.0976 19.8929 10.1098C19.8461 10.1217 19.8092 10.1472 19.8092 10.1667C19.8092 10.186 19.7728 10.2281 19.7291 10.2596C19.6855 10.291 19.6498 10.3269 19.6498 10.3399C19.6498 10.3529 19.5911 10.4163 19.5198 10.4803C19.3924 10.5942 19.3904 10.6009 19.393 10.7351C19.3943 10.8282 19.4101 10.8854 19.4426 10.9137C19.5336 10.9928 19.4959 11.1766 19.3849 11.1966C19.3469 11.2034 19.3293 11.0681 19.3594 11.0034C19.4057 10.9046 19.3672 10.9075 19.2944 11.0081C19.2362 11.0887 19.2242 11.0955 19.1917 11.0645C19.1257 11.0016 18.9309 10.5281 18.9268 10.4205C18.9231 10.3269 18.9164 10.3183 18.8607 10.3394C18.7978 10.363 18.6943 10.3092 18.6943 10.252C18.6938 10.2354 18.6626 10.1961 18.6247 10.1652C18.563 10.1147 18.5311 10.1129 18.3199 10.1462C18.178 10.1688 18.0677 10.173 18.0443 10.1566C18.0121 10.1342 18.0046 10.1376 18.0046 10.1748C18.0046 10.1997 18.0464 10.2336 18.0976 10.2499C18.2058 10.2848 18.2209 10.3711 18.1372 10.4738C18.108 10.5097 18.0844 10.5476 18.0844 10.5585C18.0844 10.596 17.912 10.7639 17.8649 10.7725C17.8392 10.7769 17.7979 10.8095 17.7729 10.8446C17.7479 10.8797 17.7157 10.9109 17.7004 10.9137C17.6853 10.9163 17.6421 10.941 17.6044 10.9683C17.5345 11.0143 17.4619 11.056 17.3871 11.0934C17.2578 11.1592 17.242 11.1745 17.2667 11.2117C17.2922 11.2496 17.3109 11.2483 17.4313 11.1974C17.5059 11.1662 17.593 11.1269 17.6247 11.1105C17.7911 11.0255 17.6104 11.5161 17.3839 11.7642L17.2495 11.9118L17.2058 11.9475L17.1403 12.0359C17.0267 12.1882 16.9963 12.2756 17.0098 12.4131C17.0168 12.4836 17.0314 12.5543 17.0423 12.5702C17.0532 12.5858 17.0641 12.6768 17.0667 12.7722C17.0706 12.9274 17.0636 12.9524 17.0033 13.0129C16.9661 13.0501 16.923 13.0831 16.9066 13.0865C16.8905 13.0899 16.8442 13.1341 16.8036 13.1845C16.7464 13.2561 16.7345 13.2886 16.7514 13.3333C16.7883 13.4318 16.7589 13.5751 16.6923 13.6188C16.6567 13.6421 16.6258 13.6941 16.6162 13.7456C16.598 13.8457 16.4076 14.1679 16.313 14.2597C16.2563 14.3148 15.9542 14.4318 15.8159 14.4526C15.7506 14.4625 15.6895 14.3902 15.7056 14.3221C15.7184 14.2688 15.6373 14.0813 15.573 14.0163C15.5528 13.9955 15.5197 13.8949 15.5005 13.7927C15.4659 13.6094 15.403 13.4573 15.3513 13.4328C15.293 13.4056 15.3409 13.1266 15.4233 13.0114C15.4349 12.9957 15.4427 12.9776 15.4462 12.9584C15.4498 12.9392 15.4488 12.9194 15.4436 12.9006C15.432 12.863 15.4233 12.8244 15.4176 12.7854C15.404 12.6781 15.35 12.5756 15.2574 12.4849C15.2067 12.4352 15.1648 12.3762 15.1648 12.3533C15.1648 12.3513 15.1609 12.3507 15.1609 12.3492L15.1664 12.3476L15.1856 12.28L15.2038 12.1755C15.2252 12.0535 15.1895 12.0203 15.0811 12.0603C15.027 12.0801 15 12.0723 14.9672 12.0257C14.9171 11.9542 14.8411 11.9613 14.6968 12.0512C14.6402 12.0863 14.5226 12.1318 14.4353 12.1516C14.3651 12.1674 14.295 12.1837 14.2249 12.2004C14.1579 12.2171 13.8916 12.0712 13.8643 12.0029C13.8526 11.9735 13.8001 11.9137 13.7476 11.8702C13.6951 11.8271 13.6527 11.7702 13.6527 11.7434C13.6527 11.7395 13.6506 11.7361 13.6501 11.7322V19.1443C13.6805 19.1339 13.7255 19.1042 13.7582 19.0715C13.7946 19.0351 13.8433 19.0018 13.8664 18.9974C13.8895 18.993 13.9249 18.9545 13.9452 18.9111C13.999 18.7959 14.13 18.6656 14.187 18.6711C14.2135 18.6737 14.2424 18.663 14.2504 18.6477C14.2585 18.6321 14.3032 18.6133 14.3497 18.605C14.3965 18.5967 14.4766 18.5601 14.5276 18.5244C14.6043 18.4704 14.6186 18.4459 14.6123 18.384C14.6064 18.3242 14.6165 18.3068 14.6597 18.2993C14.6893 18.2941 14.713 18.306 14.713 18.326C14.713 18.3461 14.7299 18.3833 14.7504 18.4085C14.7832 18.4493 14.8242 18.4485 15.1084 18.3988C15.2852 18.3677 15.43 18.3338 15.43 18.3227C15.43 18.3115 15.461 18.2754 15.4989 18.2423C15.5639 18.1862 15.5702 18.1849 15.5936 18.2247C15.6097 18.252 15.6529 18.2616 15.7163 18.2509C15.7704 18.2421 15.8567 18.2426 15.9079 18.2525C16.0291 18.2759 16.1913 18.2574 16.2124 18.2174C16.2217 18.2002 16.2561 18.1812 16.2891 18.1752C16.3224 18.1695 16.3783 18.1271 16.4136 18.0814C16.4625 18.0182 16.4953 17.999 16.5506 18.0008C16.5907 18.0018 16.6234 17.9943 16.6208 17.9834C16.6045 17.8731 16.6619 17.8596 16.769 17.9496C16.8738 18.0372 16.9791 18.0354 16.9911 17.9454C16.9958 17.9098 17.0319 17.8575 17.0722 17.8284C17.1134 17.7986 17.1504 17.7633 17.1819 17.7234C17.2303 17.6537 17.4372 17.5159 17.4705 17.5315C17.4848 17.5382 17.5074 17.5211 17.5212 17.4927C17.5366 17.4615 17.5628 17.4452 17.5901 17.4512C17.6218 17.4582 17.6322 17.4486 17.6265 17.4155C17.6172 17.3581 17.7482 17.2642 17.8618 17.247C17.9609 17.232 18.0914 17.2913 18.0737 17.3433C18.0558 17.3947 18.3103 17.4186 18.5922 17.3913C18.7999 17.3713 18.8241 17.375 18.8501 17.4304C18.8756 17.4844 18.8854 17.486 18.9328 17.4467C18.9809 17.4067 18.9975 17.4108 19.081 17.4888C19.16 17.5624 19.1831 17.571 19.2268 17.5385C19.2554 17.5175 19.2715 17.4881 19.2624 17.474C19.239 17.4387 19.3485 17.3037 19.4296 17.2678C19.4663 17.2517 19.4892 17.232 19.4803 17.2242C19.4715 17.2164 19.4775 17.1909 19.4941 17.167C19.5167 17.134 19.5159 17.108 19.4899 17.0617C19.4632 17.0123 19.4632 16.9902 19.4899 16.9514C19.5193 16.909 19.5287 16.9091 19.5672 16.9494C19.6236 17.0086 19.6953 17.0053 19.8043 16.9382C19.8851 16.8888 19.8948 16.8883 19.9306 16.9356C19.9644 16.9805 19.9878 16.9816 20.1085 16.946C20.2767 16.8961 20.3136 16.8623 20.3136 16.758C20.3136 16.6909 20.3248 16.6761 20.3812 16.6662C20.4181 16.6594 20.4543 16.6706 20.4623 16.6909C20.4857 16.7507 20.5565 16.7507 20.6092 16.6914C20.6475 16.6483 20.6659 16.6428 20.6961 16.6636C20.726 16.6844 20.7392 16.6797 20.7569 16.6433C20.7871 16.5812 20.8817 16.5921 20.9225 16.662C20.94 16.6919 20.9943 16.7294 21.0434 16.7447C21.1298 16.7723 21.1355 16.7702 21.2444 16.6743C21.3783 16.556 21.4048 16.5489 21.4501 16.6171C21.4693 16.6457 21.5013 16.6587 21.5221 16.6467C21.5336 16.641 21.5464 16.6387 21.5591 16.64C21.5719 16.6414 21.5839 16.6464 21.5939 16.6545C21.6368 16.6917 21.7408 16.7024 21.7894 16.6743C21.8097 16.6623 21.8263 16.6165 21.8263 16.5721C21.8263 16.4767 21.8583 16.4632 21.9105 16.5367C21.9407 16.5786 21.9592 16.5822 21.9974 16.5528C22.0556 16.5086 22.2231 16.524 22.2433 16.5757C22.2667 16.6355 22.3263 16.5994 22.3434 16.5149C22.359 16.4359 22.3645 16.4322 22.4864 16.4229C22.6081 16.4135 22.6154 16.4091 22.6479 16.3209C22.6671 16.2689 22.689 16.2432 22.7051 16.2429C22.7199 16.2437 22.7295 16.2702 22.7202 16.3235C22.7103 16.3792 22.7217 16.3968 22.7771 16.4093C22.8559 16.4265 23.035 16.4361 23.1908 16.4309C23.3218 16.4267 23.3455 16.4379 23.3265 16.4933C23.3161 16.5232 23.3372 16.5427 23.391 16.5544C23.4347 16.5638 23.4705 16.5814 23.4705 16.5934C23.4705 16.6054 23.5418 16.6028 23.6286 16.5874C23.6432 16.5848 23.6476 16.5861 23.6601 16.5843V13.0171C23.6146 13.1237 23.5779 13.2269 23.5779 13.2553C23.5779 13.2932 23.561 13.3166 23.5285 13.3224C23.5012 13.3273 23.4484 13.3614 23.4113 13.3985C23.3359 13.4745 23.3296 13.4773 23.3015 13.4531C23.2906 13.4435 23.2285 13.4438 23.1635 13.4534C23.0337 13.4729 22.949 13.4284 22.936 13.3346C22.93 13.2912 22.8996 13.2743 22.8172 13.268C22.709 13.2602 22.6622 13.241 22.6622 13.2035C22.6619 13.1567 22.5754 13.086 22.5033 13.073C22.3973 13.0543 22.0387 13.1934 22.0387 13.2534C22.0387 13.2649 21.9841 13.2924 21.9173 13.3138C21.8505 13.3354 21.7626 13.379 21.7223 13.4113C21.6583 13.4622 21.6386 13.4669 21.5725 13.4453C21.5018 13.4225 21.4964 13.4084 21.4938 13.254C21.4919 13.1482 21.4714 13.0496 21.4373 12.9833C21.3986 12.9074 21.3856 12.8351 21.3911 12.7202C21.3996 12.5416 21.4145 12.4997 21.4649 12.5109C21.4839 12.5153 21.5146 12.4963 21.5333 12.4693C21.552 12.4423 21.5858 12.4168 21.6079 12.4129C21.63 12.409 21.6937 12.3832 21.7501 12.3557C21.8307 12.3159 21.8619 12.2803 21.897 12.1916C21.9215 12.1292 21.9511 12.0824 21.9625 12.0879C21.974 12.0933 22.0158 12.0541 22.0554 12.0005C22.1261 11.9048 22.2316 11.8575 22.2641 11.9066C22.2909 11.9475 22.3148 11.93 22.3627 11.8336C22.3874 11.7831 22.4272 11.7387 22.4506 11.7345C22.4766 11.7298 22.4849 11.7153 22.474 11.6984C22.4604 11.6781 22.4773 11.6714 22.5322 11.676C22.5859 11.6797 22.6399 11.6785 22.6934 11.6727C22.806 11.6586 22.8192 11.6768 22.7724 11.7803C22.7329 11.8677 22.7329 11.8682 22.8512 11.922C22.9162 11.9516 22.9797 11.974 22.9916 11.9716C23.0184 11.967 23.0473 11.8235 23.0473 11.6961C23.0473 11.6454 23.0673 11.5793 23.0917 11.5491C23.0991 11.539 23.1076 11.5299 23.1172 11.5218C23.1224 11.5182 23.1268 11.5167 23.131 11.5182C23.1435 11.5224 23.1533 11.552 23.1721 11.6162C23.1929 11.6875 23.2235 11.7353 23.2456 11.7314C23.2794 11.7254 23.3387 11.8687 23.3387 11.9568C23.3387 11.975 23.3746 12.0057 23.4183 12.025C23.4622 12.0442 23.4981 12.0684 23.4981 12.0788C23.4981 12.0892 23.528 12.1219 23.5641 12.1516C23.6005 12.181 23.6304 12.2166 23.6307 12.2311C23.6307 12.2374 23.6507 12.2561 23.6601 12.2694V11.154C23.6258 11.1772 23.5867 11.1923 23.5457 11.1981C23.4079 11.2117 23.4001 11.2683 23.5254 11.3516C23.5829 11.3898 23.6237 11.4321 23.6164 11.4462C23.5914 11.4927 23.4334 11.4683 23.3452 11.4038C23.2417 11.3284 23.2178 11.3289 23.1801 11.4095C23.1468 11.4805 23.0418 11.5083 22.9955 11.4576C22.9742 11.4348 22.9373 11.4329 22.8863 11.4524C22.8005 11.486 22.7938 11.4756 22.8416 11.3867C22.866 11.3398 22.866 11.3206 22.8416 11.2993C22.8073 11.2697 22.6315 11.2304 22.5743 11.24C22.5343 11.2465 22.4924 11.2106 22.4412 11.1261C22.4116 11.0767 22.4116 11.0624 22.4412 11.0372C22.4568 11.0341 22.482 11.0247 22.5093 11.0175H22.5098C22.5353 11.0094 22.562 11.0061 22.5886 11.0078L22.5912 11.0073V11.0078C22.6097 11.0086 22.6365 11.0382 22.6505 11.0749L22.6765 11.1415L22.7506 11.0733L22.8242 11.0042L23.0356 11.0372C23.1578 11.0562 23.2732 11.0944 23.3091 11.1272C23.359 11.1727 23.3871 11.1774 23.4513 11.1511C23.4955 11.1329 23.5467 11.1134 23.5647 11.1074C23.5829 11.1014 23.618 11.0715 23.6427 11.0408C23.6497 11.0323 23.6538 11.033 23.6601 11.0266V6.30599C23.6229 6.31587 23.6047 6.31223 23.6047 6.28311C23.6047 6.26413 23.6005 6.25477 23.586 6.25347ZM16.4763 7.26435C16.4516 7.26877 16.4511 7.28463 16.4737 7.33091C16.4997 7.38447 16.5717 7.38629 16.5717 7.33351C16.5717 7.30231 16.5109 7.25811 16.4763 7.26435ZM23.5943 7.58545C23.5998 7.58675 23.6039 7.59169 23.6039 7.60053C23.6039 7.61561 23.5855 7.63849 23.5623 7.65201C23.5363 7.66683 23.5244 7.66319 23.5309 7.64161C23.5407 7.60885 23.5769 7.58155 23.5943 7.58545ZM23.4755 7.65643C23.5176 7.64889 23.4874 7.71519 23.4232 7.77135C23.3894 7.80073 23.3652 7.81009 23.3652 7.79319C23.3652 7.75575 23.4404 7.66267 23.4755 7.65643ZM16.0382 7.71831C16.0344 7.71658 16.0303 7.716 16.0262 7.71665C16.0221 7.7173 16.0183 7.71914 16.0153 7.72195C15.9987 7.73573 16.001 7.76147 16.0218 7.79267C16.0572 7.84493 16.0826 7.80619 16.0569 7.74015C16.0537 7.73082 16.047 7.72284 16.0382 7.71831ZM15.7623 7.78149C15.8099 7.77291 15.8148 7.83167 15.7704 7.88601C15.7251 7.94165 15.6874 7.94191 15.7064 7.88653C15.7153 7.86053 15.7228 7.82803 15.7228 7.81373C15.7228 7.79995 15.7405 7.78513 15.7623 7.78149ZM18.2141 8.58021C18.1969 8.5834 18.1808 8.59091 18.1673 8.60205C18.0992 8.65249 18.0927 8.74765 18.1569 8.75129C18.2131 8.75441 18.2045 8.76221 18.2383 8.68733C18.2695 8.61947 18.2542 8.57553 18.2146 8.58021H18.2141ZM17.7609 8.59451C17.7381 8.58899 17.7142 8.58935 17.6915 8.59555C17.6104 8.61375 17.4866 8.71177 17.463 8.77677C17.4406 8.83813 17.4942 8.97203 17.5808 9.07135C17.6265 9.12387 17.652 9.16911 17.6367 9.17171C17.6213 9.17431 17.5951 9.20577 17.5782 9.24139C17.5522 9.29703 17.5587 9.31315 17.6239 9.35761C17.6655 9.38621 17.7149 9.40025 17.7347 9.38959C17.7535 9.3791 17.7736 9.37106 17.7945 9.36567C17.8309 9.35943 17.8239 9.24165 17.7841 9.18601C17.7646 9.15923 17.7466 9.09787 17.7438 9.04951C17.7407 8.99543 17.7079 8.93121 17.659 8.88389C17.607 8.83319 17.5904 8.80043 17.6122 8.78899C17.6392 8.77179 17.6633 8.75037 17.6835 8.72555C17.6964 8.71172 17.7119 8.70059 17.7291 8.69283C17.7463 8.68506 17.7649 8.6808 17.7838 8.68031C17.8431 8.68161 17.8449 8.67823 17.8093 8.62935C17.7977 8.61253 17.7806 8.60023 17.7609 8.59451ZM16.8481 8.76611C16.8317 8.7672 16.8157 8.77159 16.8011 8.77901C16.7864 8.78642 16.7734 8.79671 16.7628 8.80927C16.7225 8.85867 16.7248 8.86127 16.7901 8.84983C16.8291 8.84281 16.8681 8.82331 16.8769 8.80615C16.8918 8.77859 16.8743 8.76533 16.8481 8.76611ZM16.5449 8.85841C16.5163 8.85919 16.4812 8.87141 16.4656 8.89351C16.45 8.91587 16.4092 8.99751 16.3746 9.07473C16.32 9.19797 16.3169 9.22007 16.351 9.24945C16.3998 9.29209 16.4906 9.27493 16.5571 9.21045C16.6237 9.14571 16.7425 9.12517 16.7932 9.16937C16.8382 9.20837 17.0155 9.18471 17.0761 9.13167C17.1091 9.10255 17.1 9.08539 17.0228 9.03027C16.8746 8.92393 16.7914 8.90287 16.7176 8.95149C16.6674 8.98425 16.6458 8.98477 16.6115 8.95487C16.5878 8.93433 16.5751 8.90495 16.5829 8.88987C16.5948 8.86777 16.5733 8.85737 16.5449 8.85841ZM17.8002 9.01337C17.7955 9.01649 17.7924 9.02299 17.7924 9.03105C17.7924 9.04743 17.8044 9.05809 17.8189 9.05549C17.8335 9.05289 17.8454 9.04561 17.8454 9.03885C17.8454 9.03209 17.8335 9.02065 17.8189 9.01389C17.8116 9.01051 17.8049 9.01025 17.8002 9.01337ZM15.4378 9.09267C15.4334 9.09397 15.4277 9.10697 15.4176 9.13375C15.4033 9.17145 15.4085 9.19797 15.4337 9.21383C15.4545 9.22709 15.4924 9.26895 15.5184 9.30691C15.5444 9.34487 15.5772 9.36671 15.5912 9.35501C15.6053 9.34357 15.6237 9.35163 15.6323 9.37321C15.6409 9.39531 15.6698 9.41663 15.6963 9.42053C15.7449 9.42833 15.7886 9.49749 15.7639 9.52765C15.7566 9.53675 15.7309 9.53025 15.7067 9.51361C15.6669 9.48631 15.6643 9.48839 15.6807 9.53987C15.6937 9.58043 15.6828 9.61787 15.6443 9.66467C15.6144 9.70159 15.5902 9.74345 15.5902 9.75775C15.5902 9.81027 15.5369 9.82535 15.4566 9.79649C15.3604 9.76139 15.3656 9.70263 15.4662 9.68261C15.5866 9.65921 15.6128 9.59785 15.5307 9.53285C15.4917 9.50165 15.4485 9.47851 15.4347 9.48085C15.4061 9.48605 15.2579 9.34123 15.2382 9.28923C15.2278 9.26141 15.2023 9.27103 15.1212 9.33265C15.0458 9.38985 15.0047 9.40623 14.9717 9.39271C14.915 9.36957 14.8736 9.40155 14.8736 9.46837C14.8736 9.49619 14.832 9.55937 14.7808 9.60955C14.7221 9.66675 14.6877 9.72447 14.6877 9.76503C14.6877 9.85941 14.5767 9.99019 14.4719 10.0193C14.4228 10.0331 14.3825 10.0567 14.3825 10.0721C14.3825 10.122 14.5575 10.0796 14.6477 10.0076C14.734 9.93871 15.214 9.78765 15.2915 9.80481C15.3318 9.81417 15.3359 9.98889 15.2967 10.0214C15.254 10.0567 15.3523 10.1054 15.4373 10.0916C15.4827 10.0863 15.5284 10.0988 15.5647 10.1264C15.6531 10.2034 15.8024 10.2255 15.8024 10.1615C15.8024 10.0672 15.9623 9.96003 16.0288 10.0102C16.0429 10.0206 16.1224 10.0393 16.2051 10.0508C16.319 10.0669 16.378 10.0607 16.4479 10.0279C16.4994 10.0037 16.5504 9.99409 16.5631 10.005C16.6024 10.0393 16.7074 9.97277 16.7332 9.89737C16.7467 9.85785 16.7576 9.77517 16.7576 9.71407C16.7576 9.61111 16.7529 9.60513 16.6978 9.63451C16.6624 9.65257 16.6243 9.66469 16.585 9.67039C16.5558 9.67299 16.5005 9.68079 16.4615 9.68781C16.3575 9.70601 16.2535 9.67637 16.2535 9.62801C16.2535 9.60461 16.2405 9.58797 16.2238 9.59083C16.2082 9.59369 16.2004 9.57029 16.2082 9.53805C16.2158 9.50607 16.2121 9.48137 16.2002 9.48345C16.1882 9.48579 16.1853 9.46109 16.1929 9.42937C16.2038 9.38439 16.1937 9.37347 16.1487 9.38153C16.1167 9.38725 16.0985 9.40259 16.1076 9.41663C16.1167 9.43041 16.1055 9.45251 16.0826 9.46603C16.0335 9.49437 16.0273 9.56067 16.073 9.56847C16.1162 9.57575 16.0421 9.74891 15.9924 9.75723C15.9493 9.76451 15.8811 9.68495 15.8811 9.62567C15.8809 9.60201 15.8575 9.55495 15.8289 9.52167C15.8003 9.48865 15.7766 9.43405 15.7766 9.40025C15.7761 9.35943 15.7361 9.31757 15.6562 9.27441C15.5905 9.23879 15.5366 9.19199 15.5366 9.17041C15.5366 9.14779 15.5213 9.13999 15.4997 9.15247C15.4776 9.16547 15.4573 9.15429 15.4503 9.12569C15.4451 9.10307 15.442 9.09241 15.4378 9.09267ZM15.1992 9.36177C15.2577 9.33915 15.2616 9.66597 15.2033 9.69977C15.1812 9.71277 15.1573 9.70757 15.15 9.68885C15.1219 9.61735 15.1581 9.37763 15.1992 9.36177ZM21.8718 9.48059C21.8814 9.47799 21.8869 9.48683 21.8942 9.50555C21.9126 9.55287 21.8593 9.75307 21.8266 9.75879C21.8146 9.76087 21.798 9.74449 21.7891 9.72187C21.7603 9.64803 21.7722 9.58355 21.8255 9.52323C21.8489 9.49671 21.8624 9.48293 21.8718 9.48059ZM14.8635 9.65219C14.8726 9.65115 14.8801 9.65245 14.8838 9.65817C14.9033 9.68807 14.8635 9.74267 14.8268 9.73617C14.8086 9.73253 14.7938 9.71953 14.7938 9.70705C14.7938 9.68365 14.8359 9.65557 14.8635 9.65219ZM21.8276 9.93351C21.8357 9.93273 21.8458 9.93351 21.8591 9.93559C21.9308 9.94599 21.922 9.93819 21.9428 10.0058C21.9481 10.0227 21.9487 10.0407 21.9446 10.0579C21.9405 10.0751 21.9318 10.0909 21.9194 10.1036C21.8596 10.1665 21.87 10.1899 21.9586 10.1946C22.0195 10.1977 22.0379 10.2138 22.0379 10.2642C22.0379 10.3266 22.0346 10.3287 21.9662 10.3038C21.9269 10.2895 21.8884 10.2861 21.8804 10.2967C21.8726 10.3071 21.8809 10.3188 21.8994 10.3227C21.9156 10.3251 21.9312 10.331 21.9451 10.3398C21.959 10.3487 21.9708 10.3603 21.9799 10.3741C21.9889 10.3878 21.995 10.4033 21.9976 10.4196C22.0003 10.4358 21.9995 10.4524 21.9953 10.4683C21.9771 10.5479 22.014 10.5534 22.0733 10.4806C22.1362 10.4036 22.189 10.491 22.175 10.647C22.1703 10.7 22.1261 10.7299 22.058 10.7263C22.0325 10.725 22.0119 10.7039 22.0119 10.6805C22.0119 10.6488 21.9945 10.6456 21.9454 10.6675C21.896 10.6891 21.8788 10.6852 21.8788 10.6532C21.8788 10.6293 21.897 10.6002 21.9186 10.5877C21.9534 10.5674 21.9534 10.5583 21.9186 10.5123C21.8964 10.4827 21.8826 10.4477 21.8788 10.4109C21.8788 10.3836 21.8684 10.3633 21.8552 10.3656C21.8188 10.3721 21.74 10.1244 21.7727 10.1072C21.7876 10.0994 21.7998 10.056 21.7998 10.0102C21.7998 9.95535 21.8034 9.93637 21.8276 9.93351ZM17.5662 9.96705C17.5576 9.96666 17.5491 9.96893 17.5418 9.97355C17.5329 9.97953 17.5269 9.98993 17.5269 10.0048C17.5269 10.0255 17.5506 10.0658 17.5797 10.0934C17.6088 10.1212 17.633 10.1558 17.633 10.1714C17.633 10.187 17.6512 10.1888 17.6733 10.1764C17.7022 10.1595 17.7128 10.173 17.7128 10.226C17.7128 10.3269 17.8132 10.3056 17.9089 10.1839L17.9819 10.0903L17.9091 10.1179C17.8207 10.1517 17.6811 10.1023 17.6458 10.0243C17.6388 10.0085 17.6278 9.99485 17.6138 9.9848C17.5998 9.97474 17.5834 9.96861 17.5662 9.96705ZM16.6994 10.2622C16.6972 10.2621 16.695 10.2625 16.6929 10.2634C16.6909 10.2643 16.6891 10.2657 16.6877 10.2674C16.6702 10.2884 16.7326 10.4208 16.8567 10.6272C16.8749 10.6571 16.8894 10.7094 16.8897 10.7429C16.8897 10.7767 16.9022 10.8092 16.917 10.8162C16.9318 10.823 16.9609 10.8677 16.9812 10.915C17.0015 10.9626 17.0418 11.005 17.0709 11.0097C17.1003 11.0141 17.1307 11.0349 17.139 11.0557C17.1653 11.1264 17.1866 11.0887 17.1679 11.0011C17.1445 10.8906 17.0327 10.7075 16.982 10.6964C16.9609 10.6914 16.9435 10.6563 16.9435 10.6176C16.9415 10.5744 16.9234 10.5336 16.8928 10.5032C16.8641 10.4776 16.8414 10.4461 16.8262 10.4109C16.8034 10.3433 16.7316 10.2627 16.6994 10.2622ZM21.7577 10.4114C21.7985 10.4041 21.7655 10.5078 21.7051 10.5775C21.6245 10.6704 21.5731 10.6888 21.6123 10.6111C21.6498 10.5365 21.7387 10.4148 21.7577 10.4114ZM13.8381 10.6836C13.8526 10.681 13.8651 10.6909 13.8651 10.7055C13.8651 10.7197 13.8529 10.7411 13.8383 10.753C13.8235 10.7653 13.8118 10.7556 13.8118 10.7317C13.8118 10.7081 13.8235 10.6862 13.8381 10.6836ZM21.5889 10.6906L21.6784 10.7502L21.7688 10.8095L21.7109 10.8719C21.6555 10.9319 21.6552 10.9369 21.6981 11.0076C21.7262 11.0536 21.7324 11.083 21.7137 11.0863C21.7031 11.0882 21.6986 11.0936 21.6986 11.0988C21.6979 11.0999 21.6474 11.1581 21.6433 11.162C21.6331 11.1926 21.6258 11.224 21.6214 11.2559C21.6167 11.2645 21.6121 11.2704 21.6076 11.2793C21.5426 11.4137 21.5432 11.4132 21.3476 11.4205C21.3112 11.4218 21.2605 11.4244 21.2351 11.4264C21.229 11.427 21.2228 11.4262 21.2171 11.4243C21.2113 11.4223 21.206 11.4191 21.2015 11.4149C21.1971 11.4107 21.1935 11.4057 21.1911 11.4C21.1888 11.3944 21.1876 11.3883 21.1877 11.3822C21.1672 11.3128 21.1396 11.2522 21.1253 11.1604C21.1274 11.1563 21.1282 11.1537 21.1308 11.1493C21.1485 11.1053 21.176 11.0783 21.1974 11.0832C21.2174 11.0876 21.2488 11.0695 21.2676 11.0427C21.2863 11.0156 21.3175 10.9902 21.337 10.9868C21.3567 10.9831 21.3859 10.953 21.4015 10.9197C21.4171 10.8864 21.4457 10.8563 21.4657 10.8526C21.4852 10.8492 21.5211 10.811 21.5452 10.7684L21.5889 10.6906ZM13.7244 10.7151C13.7348 10.7159 13.7463 10.7192 13.7585 10.7252C13.79 10.7406 13.7913 10.7525 13.765 10.7845C13.7411 10.8141 13.732 10.8165 13.732 10.7928C13.732 10.7741 13.7138 10.7712 13.6888 10.7855C13.6597 10.8027 13.6493 10.7975 13.6576 10.771C13.6654 10.7447 13.6787 10.7276 13.6961 10.7195C13.7051 10.7155 13.7147 10.714 13.7244 10.7151ZM21.851 10.7281C21.8666 10.7255 21.8788 10.7359 21.8788 10.7512C21.8788 10.7663 21.8736 10.7798 21.8671 10.7811C21.8609 10.7822 21.8484 10.772 21.8393 10.7582C21.8305 10.7444 21.8357 10.7307 21.851 10.7281ZM22.2415 10.8919C22.2597 10.8867 22.2805 10.9023 22.2985 10.94L22.3289 11.005C22.3107 11.0299 22.2912 11.051 22.2769 11.0752C22.2743 11.0728 22.2082 11.083 22.1885 11.0044C22.1957 10.9931 22.2005 10.9803 22.2025 10.967C22.2085 10.9226 22.2233 10.8971 22.2415 10.8919ZM23.5777 10.9205C23.592 10.9179 23.6039 10.9288 23.6039 10.9439C23.6039 10.9515 23.6013 10.9589 23.5965 10.9648C23.5917 10.9708 23.5851 10.9749 23.5777 10.9766C23.5628 10.9792 23.5511 10.9688 23.5511 10.9538C23.5511 10.9384 23.5631 10.9231 23.5777 10.9205ZM23.3801 10.9283C23.4027 10.9244 23.4144 10.9348 23.4053 10.9517C23.3964 10.9686 23.3775 10.9847 23.3637 10.9873C23.3499 10.9899 23.339 10.9787 23.339 10.9634C23.339 10.948 23.3572 10.9322 23.3801 10.9283ZM22.0946 10.9522C22.1105 10.9561 22.111 10.9774 22.0881 11.0107C22.0814 11.0201 22.0795 11.0271 22.0769 11.0325L22.0028 11.0588C21.9404 11.0832 21.8645 11.0957 21.826 11.1477C21.826 11.1617 21.8497 11.162 21.8788 11.1488C21.8874 11.1449 21.8879 11.1425 21.8952 11.1384L21.9212 11.1306L22.0039 11.1279L21.9992 11.135C21.9906 11.1423 21.9797 11.1482 21.9724 11.1563C21.9334 11.1987 21.9152 11.2395 21.9277 11.2548C21.9394 11.2694 21.9475 11.3061 21.9475 11.3365C21.9454 11.408 21.8609 11.4415 21.8445 11.3778C21.8367 11.3471 21.8318 11.3583 21.8292 11.4088C21.8268 11.468 21.8149 11.4878 21.7798 11.4868C21.7543 11.4862 21.733 11.4608 21.733 11.4306C21.7335 11.4015 21.7268 11.3727 21.7135 11.3469C21.7025 11.331 21.7051 11.2821 21.72 11.239C21.7314 11.2054 21.7324 11.1948 21.7356 11.1797C21.7428 11.1584 21.7746 11.0679 21.7746 11.0627L21.7712 11.0645C21.7866 11.0451 21.8068 11.03 21.8297 11.0206C21.8526 11.0111 21.8776 11.0077 21.9022 11.0107C21.9464 11.0128 22.0052 10.9974 22.0333 10.9766C22.0455 10.9671 22.0592 10.9595 22.0738 10.9543C22.0805 10.9517 22.0876 10.951 22.0946 10.9522ZM20.3708 11.0336H20.3719C20.4174 11.0336 20.4842 11.0552 20.5513 11.096C20.6475 11.1547 20.7184 11.1914 20.7801 11.2156C20.8305 11.2837 20.8373 11.3357 20.9142 11.3289C20.955 11.3053 21.0294 11.351 21.0294 11.4007C21.0294 11.4165 21.0471 11.4194 21.0689 11.4067C21.091 11.3939 21.1087 11.3981 21.1087 11.4171C21.1087 11.4389 21.0861 11.449 21.0427 11.4452C20.9831 11.4402 20.9761 11.4485 20.9761 11.5211C20.9761 11.6121 21.0317 11.6292 21.24 11.6022C21.305 11.5939 21.3622 11.6004 21.3682 11.617C21.3736 11.6334 21.4009 11.6428 21.429 11.6378C21.4613 11.6321 21.4802 11.6482 21.4802 11.682C21.4802 11.728 21.4659 11.7353 21.3677 11.7397C21.3055 11.7426 21.234 11.7379 21.2096 11.7293C21.1721 11.72 21.1331 11.7188 21.0952 11.7257C21.0524 11.7321 21.0088 11.7287 20.9675 11.7158C20.8838 11.6841 20.6456 11.4829 20.6043 11.409L20.5692 11.3463L20.5344 11.2873V11.2852C20.5338 11.2839 20.5297 11.2826 20.5297 11.2814V11.2798C20.5169 11.2608 20.4821 11.2385 20.4428 11.2283C20.3615 11.2075 20.3134 11.1501 20.3134 11.0736C20.3134 11.058 20.3212 11.0471 20.3342 11.0406C20.3456 11.0354 20.358 11.0329 20.3706 11.0333L20.3708 11.0336ZM22.4051 11.1807C22.4253 11.1867 22.4363 11.1989 22.4363 11.2177C22.4363 11.2476 22.156 11.3165 22.1295 11.2931C22.0983 11.266 22.1289 11.2395 22.2329 11.2047C22.2641 11.194 22.2922 11.187 22.3172 11.1823C22.346 11.1753 22.376 11.1748 22.4051 11.1807ZM22.1786 11.5159H22.1791C22.2051 11.5133 22.2233 11.5263 22.2233 11.558C22.2228 11.5777 22.177 11.624 22.1217 11.6607C21.9987 11.7418 21.9852 11.7452 21.9852 11.6919C21.9852 11.669 21.9953 11.6485 22.007 11.6464C22.0187 11.6443 22.0554 11.6116 22.0881 11.5736C22.1185 11.5387 22.1521 11.519 22.1786 11.5159ZM21.9347 11.597C22.0244 11.5965 21.9664 11.6396 21.7748 11.682C21.6261 11.7148 21.5848 11.7158 21.5936 11.6864C21.6014 11.6602 21.6638 11.6378 21.7956 11.6136C21.8588 11.6024 21.9048 11.5972 21.9347 11.597ZM16.6143 12.052C16.5746 12.0593 16.5389 12.1334 16.5647 12.1557C16.5834 12.1721 16.6515 12.105 16.6515 12.0704C16.6515 12.0569 16.6346 12.0484 16.6143 12.052ZM17.5412 12.6118C17.5633 12.6102 17.5896 12.6235 17.6057 12.6523C17.6395 12.7129 17.6413 12.8198 17.6094 12.9097C17.5958 12.9474 17.5574 13.0878 17.5238 13.2217C17.4747 13.4178 17.4502 13.4713 17.4001 13.5005C17.308 13.5535 17.2667 13.555 17.2402 13.5056C17.1882 13.4087 17.1817 13.3125 17.2212 13.2251C17.2428 13.1765 17.2539 13.1185 17.2451 13.0961C17.2134 13.0155 17.2607 12.9116 17.3553 12.8536C17.406 12.8221 17.4476 12.7771 17.4476 12.7535C17.4476 12.7295 17.4591 12.7082 17.4736 12.7056C17.4882 12.703 17.5007 12.682 17.5007 12.6588C17.5007 12.6289 17.5189 12.6133 17.5412 12.6118ZM17.2274 12.6256C17.2324 12.6292 17.2352 12.6375 17.2352 12.6492C17.2352 12.6981 17.2191 12.7082 17.1962 12.6736C17.1882 12.6609 17.1934 12.6404 17.2082 12.6279C17.2155 12.6219 17.2225 12.6216 17.2274 12.6253V12.6256ZM17.2924 12.6599H17.2929C17.3031 12.6608 17.3127 12.6651 17.3202 12.6721C17.3603 12.7069 17.3379 12.7345 17.2883 12.7111C17.2667 12.7015 17.2586 12.6825 17.2695 12.6692C17.2747 12.6622 17.2833 12.6596 17.2924 12.6599ZM17.925 13.0982C17.9284 13.0975 17.9318 13.0976 17.9351 13.0984C17.9385 13.0992 17.9415 13.1008 17.9442 13.103C17.9468 13.1052 17.9488 13.108 17.9502 13.1111C17.9516 13.1143 17.9522 13.1177 17.952 13.1211C17.9518 13.1288 17.949 13.1361 17.9441 13.142C17.9392 13.1479 17.9325 13.152 17.925 13.1536C17.9104 13.1562 17.8987 13.1458 17.8987 13.1307C17.8988 13.1232 17.9015 13.1158 17.9063 13.1099C17.911 13.104 17.9176 13.0999 17.925 13.0982ZM22.7828 13.177C22.7752 13.1786 22.7683 13.1828 22.7633 13.1887C22.7582 13.1947 22.7553 13.2022 22.755 13.21C22.755 13.2251 22.7602 13.2371 22.7665 13.236C22.773 13.2347 22.786 13.2191 22.7951 13.2022C22.8039 13.1853 22.7982 13.1741 22.7828 13.177ZM23.4191 13.5517C23.469 13.5478 23.4713 13.5647 23.4713 13.6273C23.4713 13.7131 23.4042 13.8171 23.3418 13.8283C23.3242 13.8317 23.2919 13.794 23.2709 13.7446C23.2103 13.6034 23.2183 13.5844 23.3515 13.5613C23.3739 13.5571 23.3964 13.5539 23.4191 13.5517ZM13.6501 19.9604V20.5673C13.9589 20.4153 14.2801 20.29 14.6103 20.1929C15.7579 19.8549 17.198 19.6755 18.6317 19.5709C20.305 19.4515 21.9832 19.4153 23.6601 19.4622V18.7862C20.466 18.7142 16.3104 18.8292 13.6501 19.9604ZM3.45627 2.55575C2.78729 2.55263 2.63337 2.56043 2.34009 2.56641V19.4622C4.01699 19.4153 5.69519 19.4515 7.36849 19.5709C8.80213 19.6755 10.2423 19.8549 11.3899 20.1926C11.7201 20.2899 12.0413 20.4152 12.3501 20.5673V4.01019C12.3496 3.95663 12.3397 3.89449 12.1273 3.74213C11.9146 3.58951 11.5295 3.41713 11.0399 3.27413C10.0605 2.98917 8.67447 2.80353 7.28555 2.69745C5.89663 2.59137 4.50277 2.56043 3.45627 2.55575ZM9.68353 3.25151C9.83303 3.24813 10.0057 3.25177 10.2046 3.26425C10.6832 3.29389 11.0199 3.46107 11.2906 3.53725C11.92 3.71405 12.0914 3.85263 12.1348 3.88383C12.2102 3.93765 12.2255 4.00005 12.1686 4.01929C12.1494 4.02605 12.1626 4.03411 12.1977 4.03749C12.2513 4.04269 12.2612 4.06011 12.2612 4.14331C12.2612 4.21221 12.2487 4.24107 12.219 4.23925C12.1897 4.23743 12.1759 4.26655 12.1759 4.33363C12.1759 4.38667 12.1603 4.43555 12.1408 4.44231C12.1127 4.45193 12.1127 4.45479 12.1408 4.45843C12.1928 4.46493 12.1863 4.65187 12.1338 4.66877C12.074 4.68801 12.0812 4.73039 12.1481 4.75197C12.2068 4.77121 12.225 4.84635 12.1769 4.87287C12.1616 4.88145 12.1247 4.87339 12.0942 4.85519C12.0552 4.83179 12.0326 4.83075 12.0196 4.85103C12.0092 4.86715 12.0274 4.88873 12.0602 4.89939C12.0984 4.91187 12.1195 4.94151 12.1195 4.98311C12.1195 5.06761 11.9936 5.09673 11.9229 5.02835C11.8787 4.98545 11.8693 4.98597 11.8225 5.03485C11.7718 5.08789 11.7724 5.08893 11.8535 5.07801C11.9671 5.06293 12.0456 5.12793 12.0139 5.21165L11.99 5.27457L11.9104 5.19657C11.7846 5.07177 11.788 5.13209 11.9143 5.26651C11.977 5.33307 12.0256 5.38715 12.022 5.38689C12.0186 5.38663 12.0246 5.44591 12.0352 5.51845L12.055 5.64975L11.9458 5.62843C11.8842 5.61647 11.8436 5.61855 11.8522 5.63363C11.861 5.64819 11.8998 5.66223 11.938 5.66483C11.9757 5.66691 12.0061 5.68485 12.0053 5.70409C12.0027 5.77169 11.738 5.95369 11.5823 5.99477C11.359 6.05353 11.3467 6.06055 11.2934 6.16845C11.2331 6.29013 11.1244 6.37047 10.9994 6.38607C10.9448 6.39309 10.9032 6.41571 10.9032 6.43807C10.9032 6.45965 10.8936 6.47681 10.8821 6.47603C10.8704 6.47525 10.8577 6.52101 10.8535 6.57743C10.8494 6.63437 10.8338 6.69521 10.8184 6.71263C10.8033 6.73005 10.7992 6.75319 10.8093 6.76411C10.8197 6.77503 10.8067 6.78231 10.7815 6.78075C10.7521 6.77893 10.7412 6.79375 10.7516 6.82079C10.7604 6.84471 10.7526 6.92687 10.7337 7.00357C10.7027 7.13045 10.6921 7.14267 10.6193 7.13825C10.5634 7.13487 10.534 7.11589 10.521 7.07429C10.508 7.03347 10.4825 7.01579 10.4386 7.01891C10.4194 7.01936 10.4004 7.01595 10.3826 7.0089C10.3649 7.00184 10.3487 6.99127 10.3351 6.97783C10.2784 6.91335 10.1432 6.62943 10.1208 6.52725C10.1082 6.47398 10.088 6.42278 10.061 6.37515C9.96303 6.21785 9.99865 5.84813 10.1136 5.82499C10.1429 5.81927 10.1653 5.77819 10.1726 5.71579C10.1825 5.63155 10.1749 5.61439 10.1232 5.60113C10.0764 5.58917 10.0652 5.59723 10.0756 5.63727C10.0948 5.71241 9.95965 5.73295 9.89543 5.66457C9.84993 5.61647 9.85019 5.60789 9.90063 5.51793C9.94977 5.42953 9.96147 5.42407 10.059 5.44331L10.1645 5.46359L10.0959 5.39599C10.0582 5.35855 10.0332 5.32007 10.0405 5.31019C10.048 5.30031 10.0395 5.30421 10.0207 5.31877C9.97369 5.35569 9.88555 5.34633 9.88165 5.30343C9.87489 5.23141 9.89127 5.15419 9.92013 5.12065C9.94093 5.09647 9.94093 5.06683 9.92013 5.02185C9.88165 4.93865 9.80053 4.66825 9.80053 4.62301C9.80053 4.60377 9.78051 4.56555 9.75659 4.53773C9.72982 4.50388 9.71083 4.46456 9.70095 4.42255C9.68613 4.34455 9.70017 4.35833 9.55041 4.27357L9.42873 4.20415L9.33227 4.25537C9.25245 4.29749 9.22047 4.29983 9.14923 4.27071C9.05953 4.23379 8.99297 4.14227 9.02235 4.09651C9.03171 4.08169 9.00675 4.05569 8.96697 4.03801C8.87597 3.99797 8.87493 3.93791 8.96307 3.87421L9.03093 3.82533L8.93655 3.76813C8.72829 3.64281 8.63677 3.27517 9.68353 3.25151ZM6.28533 3.48161C6.39037 3.48655 6.46213 3.49565 6.44471 3.50189C6.42755 3.50787 6.41975 3.54401 6.42703 3.58249C6.43743 3.63813 6.42469 3.65737 6.36463 3.67661C6.26791 3.70729 6.27337 3.70859 6.22995 3.64541C6.20743 3.61411 6.17786 3.58855 6.14363 3.57079C6.11633 3.55909 6.09423 3.53179 6.09423 3.51099C6.09423 3.48291 6.14519 3.47459 6.28533 3.48161ZM7.02061 3.52373C7.13787 3.52529 7.17661 3.56013 7.10537 3.60095C7.04713 3.63397 6.91817 3.62279 6.88541 3.58145C6.84667 3.53231 6.87241 3.52165 7.02061 3.52373ZM7.28165 3.53647C7.37629 3.54219 7.39813 3.55233 7.38513 3.58509C7.37447 3.61239 7.38617 3.62721 7.41971 3.62929C7.48575 3.63345 7.50811 3.65919 7.48939 3.70729C7.46859 3.76033 7.36511 3.74785 7.29647 3.68389C7.2621 3.65177 7.23013 3.61718 7.20079 3.58041C7.16517 3.53335 7.17219 3.52945 7.28139 3.53621L7.28165 3.53647ZM6.66415 3.56949C6.68859 3.54661 6.77335 3.64385 6.77985 3.70287C6.79233 3.81025 6.72447 3.79569 6.68807 3.68311C6.66935 3.62565 6.65869 3.57443 6.66415 3.56949ZM6.01675 3.58561C6.02845 3.58977 6.04067 3.60485 6.05991 3.63345C6.08721 3.67401 6.09371 3.70313 6.07551 3.70807C6.05913 3.71249 6.05185 3.74681 6.05887 3.78347C6.06589 3.82065 6.05705 3.85861 6.03989 3.86797C6.02299 3.87733 6.00947 3.90671 6.00999 3.93297C6.01077 3.97691 6.01311 3.97665 6.03963 3.93297C6.07005 3.88227 6.17925 3.87239 6.17925 3.92023C6.17925 3.93583 6.19875 3.94961 6.22293 3.95143C6.24685 3.95273 6.28819 3.99329 6.31471 4.04165C6.34331 4.09365 6.38595 4.13057 6.41923 4.13265C6.46239 4.13525 6.46681 4.12927 6.43717 4.10873C6.41559 4.09365 6.40623 4.06895 6.41637 4.05335C6.42121 4.04559 6.42283 4.03625 6.42089 4.02732C6.41894 4.01838 6.41359 4.01056 6.40597 4.00551C6.36125 3.97509 6.37139 3.92049 6.43509 3.85627C6.49515 3.79543 6.56197 3.80687 6.53571 3.87343C6.52739 3.89423 6.53389 3.92023 6.54975 3.93089C6.56587 3.94181 6.57237 3.96859 6.56405 3.98991C6.55365 4.01643 6.57055 4.02943 6.61787 4.03255C6.69977 4.03775 6.74787 4.11809 6.72551 4.21117C6.70991 4.27565 6.71147 4.27669 6.75203 4.22677C6.79363 4.17607 6.79467 4.17607 6.82717 4.23873C6.84537 4.27383 6.85317 4.30321 6.84485 4.30477C6.81398 4.30794 6.78302 4.31028 6.75203 4.31179C6.53987 4.32427 6.44107 4.34481 6.37243 4.38901C6.27779 4.45011 6.19303 4.44517 6.14571 4.37627C6.12543 4.34663 6.06719 4.29567 6.01675 4.26291C5.94681 4.21793 5.92835 4.19011 5.94057 4.14721C5.95123 4.10899 5.94785 4.10197 5.93095 4.12537C5.90573 4.15969 5.81135 4.13733 5.81135 4.09677C5.81135 4.06297 5.91171 3.98887 5.95357 3.99147C5.98321 3.99329 5.98477 3.98523 5.95929 3.95845C5.93407 3.93141 5.91171 3.94077 5.86543 3.99693C5.82383 4.04711 5.79003 4.06297 5.75883 4.04763C5.72927 4.03429 5.69758 4.02628 5.66523 4.02397C5.58827 4.02215 5.58203 3.94571 5.65353 3.87317C5.70168 3.82198 5.74633 3.76761 5.78717 3.71041C5.82617 3.65477 5.87141 3.62097 5.89689 3.62877C5.92055 3.63605 5.95669 3.62513 5.97749 3.60433C5.99361 3.58821 6.00479 3.58171 6.01649 3.58561H6.01675ZM8.08947 3.59835C8.16487 3.59497 8.24885 3.59575 8.32659 3.59939H8.32711C8.48311 3.60667 8.61415 3.62669 8.60505 3.65373C8.59855 3.67271 8.56475 3.69091 8.52965 3.69377C8.48805 3.69741 8.47167 3.71353 8.48207 3.74109C8.49065 3.76397 8.47557 3.80479 8.44853 3.83131C8.38821 3.89085 8.37417 3.94623 8.42071 3.93947C8.43969 3.93687 8.45971 3.96183 8.46491 3.99537C8.47141 4.03957 8.44671 4.07129 8.37703 4.11029C8.26601 4.17191 8.21115 4.17659 8.23221 4.12277C8.24261 4.09599 8.21921 4.08481 8.14641 4.08221C8.09129 4.08013 8.04631 4.08871 8.04631 4.10093C8.04631 4.11341 7.98391 4.11107 7.90669 4.09573C7.80009 4.07519 7.75589 4.07857 7.72339 4.10925C7.68491 4.14539 7.69089 4.15527 7.77981 4.20311C7.87263 4.25277 7.88875 4.25355 8.02109 4.21793C8.13653 4.18673 8.17761 4.18673 8.24391 4.21845C8.33855 4.26343 8.37235 4.33025 8.32659 4.38225C8.30891 4.40253 8.30111 4.44465 8.30891 4.47533C8.31671 4.50601 8.30735 4.53565 8.28811 4.54189C8.24235 4.55671 7.70883 4.52213 7.63655 4.49977H7.63603C7.53827 4.46935 7.50915 4.42437 7.50863 4.30373C7.50811 4.11263 7.48393 4.05621 7.41009 4.06999C7.36121 4.07935 7.33157 4.06167 7.28555 3.99459C7.19585 3.86277 7.20703 3.81441 7.32455 3.82169C7.39215 3.82585 7.43453 3.84639 7.45845 3.88565C7.48159 3.92439 7.51253 3.93947 7.55205 3.93193C7.57025 3.92884 7.58896 3.93066 7.60623 3.9372C7.6235 3.94373 7.63872 3.95475 7.65033 3.96911C7.68413 4.01201 7.69193 4.00889 7.72443 3.93349C7.74445 3.88721 7.77955 3.85029 7.80243 3.85185C7.83961 3.85393 7.83961 3.84405 7.80425 3.77359C7.78189 3.72939 7.76369 3.68519 7.76343 3.67557C7.76343 3.66569 7.82635 3.64099 7.90331 3.62071C7.96448 3.60721 8.02683 3.59972 8.08947 3.59835ZM6.14857 3.78477C6.17847 3.78607 6.20759 3.80947 6.20759 3.83911C6.20759 3.87187 6.17691 3.87057 6.12621 3.83547C6.09969 3.81675 6.09787 3.80349 6.11971 3.79127C6.12854 3.78648 6.13853 3.78423 6.14857 3.78477ZM9.19343 3.79699C9.16925 3.79543 9.14923 3.80661 9.14923 3.82221C9.14923 3.83781 9.16171 3.85133 9.17627 3.85211C9.19083 3.85315 9.21007 3.84171 9.21995 3.82689C9.22957 3.81181 9.21787 3.79829 9.19343 3.79699ZM7.13891 3.89631C7.14801 3.89735 7.16049 3.90619 7.17947 3.92335C7.21717 3.95663 7.22679 4.00785 7.22263 4.15943L7.21743 4.35287L7.10563 4.34585C6.99825 4.33909 6.99383 4.33493 7.00475 4.25953C7.01515 4.18855 7.00917 4.18153 6.94703 4.18933C6.88385 4.19765 6.87943 4.19167 6.89711 4.12225C6.91011 4.07233 6.90673 4.05205 6.88697 4.06297C6.83185 4.09365 6.75905 4.04321 6.75489 3.97093C6.75021 3.88929 6.80325 3.87993 6.87033 3.95117C6.89477 3.97717 6.91505 3.98809 6.91505 3.97509C6.91505 3.92595 7.03075 3.88383 7.06975 3.91867C7.09757 3.94337 7.11057 3.94259 7.11967 3.91607C7.12461 3.90177 7.13007 3.89527 7.13891 3.89631ZM7.34821 4.19141C7.45481 4.19817 7.53021 4.43217 7.43557 4.46259C7.37655 4.48157 7.38617 4.48599 7.31103 4.40123C7.25409 4.33701 7.24915 4.31673 7.27723 4.25745C7.29491 4.21949 7.32689 4.19011 7.34821 4.19141ZM5.60283 4.34949C5.65171 4.34481 5.68603 4.34533 5.71359 4.35131C5.73947 4.35712 5.76307 4.37041 5.78145 4.38953C5.81083 4.41761 5.86101 4.43841 5.89325 4.43529C5.93355 4.43139 5.98841 4.47117 6.06589 4.56061C6.12829 4.63263 6.17873 4.70309 6.17873 4.71765C6.17873 4.73195 6.19147 4.73767 6.20655 4.72909C6.22163 4.72077 6.26635 4.73663 6.30561 4.76471C6.37269 4.81281 6.37711 4.81307 6.37711 4.76731C6.37711 4.72155 6.38179 4.72155 6.44783 4.76887C6.51673 4.81827 6.51829 4.81827 6.51829 4.74859C6.51829 4.70647 6.53467 4.67813 6.55807 4.67943C6.57965 4.68073 6.60435 4.66305 6.61345 4.64043C6.63009 4.59753 6.75931 4.59025 6.78349 4.63081C6.79103 4.64329 6.78245 4.70543 6.76529 4.76861C6.74215 4.84213 6.74261 4.92104 6.76659 4.99429C6.78479 5.05487 6.80715 5.13391 6.81651 5.16953C6.82587 5.20515 6.84823 5.23557 6.86669 5.23713C6.91947 5.24181 7.02789 5.34997 7.02789 5.39807C7.02789 5.42199 7.00553 5.45267 6.97849 5.46593C6.95119 5.47945 6.93871 5.50025 6.94989 5.51221C6.98577 5.55017 6.91141 5.60659 6.83211 5.60165C6.80299 5.59203 6.71771 5.56187 6.70887 5.56109C6.70809 5.56109 6.46863 5.61309 6.42547 5.62037C6.39498 5.6135 6.36389 5.60958 6.33265 5.60867C6.28013 5.58917 6.20967 5.62739 6.17925 5.54081C6.17925 5.52313 6.13583 5.49193 6.08279 5.47113C5.99569 5.43707 5.95279 5.38741 5.95279 5.32085C5.95279 5.30785 5.98815 5.28653 6.03079 5.27353L6.10801 5.25013L6.01961 5.24233C5.92939 5.23427 5.89637 5.19345 5.89637 5.08893C5.89637 5.05903 5.88337 5.03381 5.86777 5.03277C5.82799 5.03017 5.83267 4.93579 5.87505 4.89367C5.90417 4.86481 5.89897 4.86351 5.84645 4.88717C5.81161 4.90277 5.78301 4.94177 5.78301 4.97297C5.78301 5.00417 5.76117 5.03537 5.73361 5.04343C5.69878 5.05568 5.66613 5.07341 5.63689 5.09595C5.59451 5.12975 5.58489 5.12455 5.54589 5.04707C5.52197 4.99949 5.48115 4.95087 5.45541 4.93943C5.42265 4.92487 5.41459 4.90043 5.42759 4.85675C5.43799 4.82243 5.45099 4.76003 5.45749 4.71817C5.46399 4.67605 5.48193 4.61807 5.49779 4.58947C5.51599 4.55697 5.51677 4.50419 5.50117 4.44907C5.47647 4.36093 5.47803 4.36041 5.60283 4.34949ZM7.43557 4.55047C7.47197 4.54891 7.51747 4.55827 7.57207 4.57777C7.68387 4.61833 7.69427 4.63523 7.65345 4.71245C7.63941 4.73845 7.61393 4.79409 7.59703 4.83595C7.58013 4.87755 7.54841 4.91083 7.52631 4.90953C7.47353 4.90615 7.44311 5.03225 7.47951 5.10297C7.49563 5.13365 7.50863 5.18019 7.50863 5.20593C7.50863 5.23193 7.53437 5.28731 7.56557 5.32891C7.60873 5.38663 7.61497 5.41289 7.59027 5.44071C7.56583 5.46879 7.56869 5.47763 7.60405 5.47971C7.63187 5.48153 7.64981 5.50623 7.64981 5.54263C7.64981 5.59385 7.65657 5.59827 7.69401 5.56967C7.75745 5.52079 7.82557 5.60165 7.82557 5.72645C7.82557 5.78053 7.83649 5.84319 7.85027 5.86581C7.86457 5.88921 7.87549 5.89337 7.87575 5.87543C7.87575 5.85775 7.89733 5.79535 7.92359 5.73659C7.99535 5.57487 7.95531 5.41731 7.84039 5.41029C7.74471 5.40431 7.64123 5.18097 7.66099 5.02367C7.69115 4.78135 7.77591 4.67007 7.92307 4.67943C7.99405 4.68385 8.01199 4.69503 7.99977 4.72675C7.98521 4.76315 7.99301 4.76367 8.06425 4.73117C8.19035 4.67371 8.43865 4.72519 8.51977 4.82581C8.55461 4.86897 8.58373 4.91733 8.58425 4.93293C8.58607 4.98597 8.73895 5.17369 8.77301 5.16433C8.79173 5.15913 8.82995 5.18435 8.85777 5.22023C8.88585 5.25611 8.92589 5.30057 8.94669 5.31929C9.07539 5.43473 9.14767 5.53639 9.13311 5.58137C9.12349 5.61153 9.13181 5.63181 9.15443 5.63363C9.17939 5.63571 9.17523 5.64845 9.14221 5.67159C9.07695 5.71735 9.07981 5.76207 9.14923 5.78859C9.18043 5.80029 9.20643 5.82109 9.20643 5.83539C9.20643 5.84917 9.22827 5.85437 9.25557 5.84631C9.28261 5.83851 9.29561 5.84137 9.28391 5.85359C9.27247 5.86555 9.31381 5.92535 9.37595 5.98645C9.50335 6.11203 9.51115 6.14869 9.43211 6.24463C9.40169 6.28155 9.37621 6.32783 9.37595 6.34707C9.37543 6.36657 9.36217 6.38165 9.34579 6.38061C9.30835 6.37827 9.17809 6.23059 9.17679 6.18925C9.17627 6.17209 9.16353 6.17807 9.14819 6.20277C9.11491 6.25815 9.14117 6.33927 9.19343 6.34265C9.28547 6.34837 9.35463 6.68481 9.26883 6.70821C9.24959 6.71341 9.23425 6.70379 9.23425 6.68689C9.23425 6.66999 9.22307 6.65569 9.20981 6.65491C9.19629 6.65387 9.19187 6.68741 9.19941 6.72849C9.21449 6.80779 9.22255 6.80649 9.04341 6.74357C9.00831 6.73135 8.97919 6.71133 8.97919 6.69859C8.97919 6.68559 8.94799 6.66531 8.90977 6.65335C8.86627 6.63713 8.82965 6.60648 8.80603 6.56651C8.73349 6.42611 8.65419 6.38087 8.55227 6.42117C8.47557 6.45159 8.40251 6.37099 8.42513 6.28155C8.44203 6.21499 8.45581 6.20771 8.52263 6.22513C8.61233 6.24853 8.68487 6.21915 8.65627 6.17079C8.64561 6.15259 8.66277 6.10605 8.69475 6.06731C8.72699 6.02831 8.75325 5.96851 8.75325 5.93471C8.75325 5.84995 8.60739 5.70487 8.54291 5.72541C8.50313 5.73841 8.49533 5.72801 8.50235 5.67367C8.51223 5.59983 8.43033 5.45397 8.40277 5.49661C8.39341 5.51117 8.34011 5.52027 8.28447 5.51689C8.16331 5.50909 8.12899 5.53353 8.19087 5.58293C8.22545 5.61023 8.23559 5.66301 8.23325 5.79405C8.22909 6.00569 8.14095 6.13361 8.01849 6.10631C7.95245 6.09175 7.95583 6.09929 8.05957 6.19887C8.12171 6.25867 8.18229 6.30807 8.19425 6.30911C8.20595 6.30963 8.21557 6.32653 8.21557 6.34603C8.21557 6.36579 8.24157 6.39933 8.27329 6.42143C8.30501 6.44301 8.32321 6.47239 8.31411 6.48669C8.29123 6.52231 8.16669 6.51243 8.14329 6.47291C8.13133 6.45263 8.10299 6.46121 8.06269 6.49631C8.00809 6.54415 7.99093 6.54597 7.92463 6.51113C7.85001 6.47187 7.82895 6.42767 7.86743 6.39127C7.87835 6.38113 7.89057 6.34499 7.89499 6.31067L7.90357 6.24827L7.86717 6.31093C7.84715 6.34551 7.78969 6.39569 7.74029 6.42273C7.69063 6.44977 7.64981 6.48825 7.64981 6.50801C7.64981 6.52777 7.60977 6.57925 7.56089 6.62241C7.40333 6.76125 7.33911 7.00981 7.45117 7.04621C7.48653 7.05765 7.51331 7.09743 7.52397 7.15411C7.53775 7.22847 7.55413 7.24511 7.62017 7.25161C7.66437 7.25577 7.74237 7.29269 7.79437 7.33325C7.94075 7.44713 8.01693 7.48561 8.10585 7.49107C8.18385 7.49627 8.18749 7.50251 8.18749 7.62211C8.18749 7.71571 8.20543 7.76953 8.25769 7.83193C8.34869 7.94087 8.38639 7.89381 8.35311 7.71363C8.33075 7.59221 8.33491 7.57947 8.41395 7.51057C8.46075 7.47001 8.49845 7.42581 8.49845 7.41255C8.49793 7.33637 8.43501 7.17543 8.39939 7.15957C8.34479 7.13513 8.34479 7.05349 8.39991 7.05713C8.43475 7.05921 8.44125 7.01969 8.43527 6.84029C8.42955 6.65647 8.43501 6.62267 8.47037 6.63463C8.49377 6.64243 8.56449 6.65283 8.62793 6.65829C8.71581 6.66609 8.76053 6.68819 8.81721 6.75293C8.85803 6.79947 8.91289 6.84211 8.93915 6.84783C8.97373 6.85511 8.98907 6.88943 8.99375 6.97211C8.99791 7.04231 9.02261 7.11043 9.05745 7.14735C9.11101 7.20455 9.11673 7.20481 9.15599 7.16165C9.17887 7.13643 9.20591 7.08261 9.21631 7.04179C9.23477 6.96951 9.31953 6.93987 9.31953 7.00565C9.31953 7.02385 9.33721 7.06051 9.35905 7.08625C9.38115 7.11225 9.42639 7.21625 9.45967 7.31765C9.52545 7.51785 9.55717 7.56335 9.65467 7.60027C9.68977 7.61379 9.73267 7.65669 9.74957 7.69543C9.76673 7.73391 9.79637 7.76615 9.81561 7.76745C9.85981 7.77005 9.88451 7.93047 9.84603 7.96661C9.82627 7.98481 9.82835 7.99443 9.85227 7.99599C9.87827 7.99755 9.87931 8.01159 9.85617 8.05319C9.82107 8.11689 9.87489 8.19541 9.95679 8.20061C9.98721 8.20243 9.99839 8.21881 9.98799 8.24533C9.97889 8.26795 9.98279 8.28693 9.99579 8.28797C10.0353 8.29057 10.054 8.40939 10.0239 8.46425C10.0012 8.50481 9.98487 8.50845 9.94015 8.48141C9.90921 8.46295 9.87203 8.45489 9.85773 8.46269C9.84369 8.47049 9.82445 8.46321 9.81457 8.44709C9.80495 8.43045 9.75295 8.41433 9.69887 8.41069C9.61281 8.40549 9.60163 8.39691 9.61047 8.34179C9.61593 8.30721 9.64427 8.23259 9.67287 8.17617C9.73137 8.06203 9.71395 8.01133 9.63777 8.07529C9.59944 8.10294 9.55565 8.12209 9.50933 8.13145C9.44641 8.14341 9.43705 8.15433 9.46331 8.18735C9.48931 8.22063 9.48255 8.22765 9.42873 8.22349C9.38444 8.21772 9.34241 8.20052 9.30679 8.17357C9.24413 8.12235 9.14923 8.10831 9.14923 8.15017C9.14923 8.16577 9.18901 8.18137 9.23763 8.18449C9.32135 8.18969 9.32525 8.19437 9.30887 8.27575C9.28963 8.37039 9.32343 8.42395 9.42327 8.45593C9.46175 8.46867 9.49087 8.46191 9.50023 8.43773C9.52207 8.38209 9.56679 8.39379 9.58759 8.46061C9.60943 8.53029 9.56549 8.57553 9.43211 8.61947C9.37777 8.63767 9.31355 8.66783 9.28911 8.68707C9.21891 8.74167 9.17809 8.72477 9.17575 8.63975C9.17445 8.59711 9.16717 8.57709 9.15963 8.59529C9.15183 8.61349 9.10243 8.63949 9.04991 8.65353C8.95371 8.67953 8.88455 8.78613 8.94773 8.81109C8.99115 8.82825 8.98829 8.87557 8.94409 8.87297C8.87883 8.86907 8.69137 8.91821 8.70697 8.93485C8.71555 8.94395 8.69059 9.01181 8.65159 9.08617C8.61181 9.16261 8.58841 9.24477 8.59777 9.27519C8.60999 9.31419 8.58529 9.34851 8.50755 9.40207C8.32139 9.52999 8.24391 9.60123 8.24391 9.64491C8.24391 9.66831 8.26523 9.75593 8.29123 9.83991C8.32997 9.96497 8.33179 9.99955 8.30163 10.0339C8.28187 10.0567 8.25665 10.0752 8.24599 10.0744C8.21765 10.0726 8.10299 9.85395 8.10299 9.80169C8.10299 9.74111 8.07855 9.72837 7.88979 9.69457C7.74419 9.66857 7.72729 9.67091 7.74315 9.71329C7.76291 9.76555 7.69037 9.76841 7.52293 9.72161C7.46209 9.70445 7.41295 9.71251 7.34925 9.74943C7.26865 9.79623 7.25773 9.81859 7.24057 9.98343C7.22003 10.1795 7.24525 10.2866 7.33417 10.3807C7.40671 10.4579 7.60197 10.4434 7.61679 10.3599C7.62484 10.3252 7.64435 10.2943 7.67217 10.272C7.71949 10.2382 7.90461 10.2369 7.90461 10.2705C7.90461 10.292 7.85313 10.4559 7.81699 10.5497C7.79437 10.6077 7.80009 10.6124 7.90279 10.6189C8.08401 10.63 8.10299 10.648 8.10299 10.8139C8.10299 11.0076 8.17891 11.1147 8.28655 11.0723C8.30988 11.0626 8.33506 11.058 8.36034 11.0589C8.38561 11.0599 8.41038 11.0663 8.43293 11.0778C8.49793 11.1066 8.51717 11.1022 8.56735 11.0466C8.62767 10.9795 8.86635 10.916 8.86635 10.9668C8.86635 10.9816 8.89131 10.9873 8.92199 10.9792C8.95241 10.9714 9.00649 10.9826 9.04159 11.0037C9.07695 11.0247 9.17939 11.0455 9.26961 11.0505C9.40871 11.0577 9.44615 11.0715 9.51557 11.1394C9.71187 11.3313 9.78883 11.3869 9.86579 11.3916C10.0041 11.4002 10.125 11.4844 10.1786 11.6095C10.2059 11.6729 10.2202 11.7366 10.2103 11.7517C10.2098 11.7525 10.2269 11.7543 10.2285 11.7553L10.2233 11.759L10.4081 11.8219L10.5023 11.8848C10.5537 11.9194 10.6557 11.9594 10.7285 11.9737C10.8013 11.988 10.8988 12.0309 10.9456 12.0686C10.9924 12.1063 11.0561 12.1433 11.0873 12.1508C11.1309 12.1615 11.1455 12.1903 11.1523 12.2797C11.1595 12.3812 11.1445 12.4142 11.0319 12.5439C10.9266 12.6651 10.9034 12.7129 10.9034 12.8055C10.9034 12.9399 10.8608 13.0707 10.7734 13.2051C10.7227 13.2831 10.6863 13.3054 10.5966 13.3143C10.4448 13.3291 10.3091 13.4362 10.3091 13.5418C10.3091 13.6224 10.2215 13.7805 10.1193 13.8824C10.0764 13.9278 10.0363 13.9758 9.99943 14.0262C9.94353 14.1031 9.91987 14.1143 9.84213 14.1003C9.75061 14.0839 9.73553 14.1044 9.78259 14.1827C9.84031 14.2789 9.68899 14.4073 9.53039 14.3975C9.47735 14.3941 9.45629 14.4136 9.43731 14.4838C9.41677 14.5592 9.40065 14.5722 9.33773 14.5641C9.29613 14.5584 9.26259 14.5657 9.26259 14.5802C9.26259 14.5948 9.28001 14.6078 9.30159 14.6091C9.36711 14.6132 9.37855 14.6957 9.31797 14.7245C9.28729 14.7388 9.26259 14.7721 9.26259 14.7981C9.26259 14.8241 9.22775 14.8725 9.18485 14.9052L9.10685 14.965L9.17263 15.0251C9.24673 15.0927 9.23919 15.1608 9.14897 15.2367C9.11803 15.2627 9.09307 15.2973 9.09307 15.3124C9.09307 15.328 9.07097 15.3548 9.04419 15.3724C9.00311 15.4 9.00155 15.4166 9.03041 15.4822C9.04939 15.5246 9.06447 15.582 9.06447 15.6096C9.06447 15.6665 9.17705 15.79 9.23165 15.7934C9.25141 15.7947 9.26207 15.8116 9.25557 15.8306C9.24413 15.8644 9.04367 15.8667 8.90041 15.835C8.85725 15.8256 8.83801 15.8051 8.84425 15.7741C8.84945 15.7484 8.82891 15.7128 8.79901 15.6954C8.768 15.6769 8.74201 15.6511 8.72335 15.6202C8.67993 15.5318 8.63391 15.2529 8.64457 15.1424C8.65237 15.0592 8.64613 15.0318 8.61961 15.0404C8.59751 15.0475 8.58373 15.0282 8.58373 14.9895C8.58373 14.951 8.60505 14.9229 8.64015 14.9159C8.67135 14.9096 8.69683 14.8821 8.69683 14.854C8.69683 14.8259 8.70463 14.783 8.71425 14.7591C8.72569 14.7295 8.71555 14.7144 8.68279 14.7123C8.64561 14.71 8.63807 14.6941 8.65159 14.6468C8.66147 14.6125 8.67707 14.502 8.68565 14.4016C8.69449 14.301 8.72595 14.1603 8.75585 14.0891C8.78575 14.0181 8.80967 13.9055 8.80967 13.8384C8.80967 13.7711 8.82943 13.6174 8.85283 13.4971C8.87786 13.3593 8.89195 13.2198 8.89495 13.0798C8.89495 12.9089 8.88585 12.8738 8.83099 12.825C8.79589 12.7933 8.75689 12.7667 8.74363 12.7652C8.66381 12.7574 8.54395 12.61 8.44151 12.3934C8.37807 12.26 8.30163 12.1264 8.27147 12.097C8.21609 12.0437 8.19763 11.9378 8.23741 11.9004C8.24911 11.8895 8.25873 11.8406 8.25873 11.7912V11.702L8.30085 11.6404C8.30085 11.6287 8.33595 11.5837 8.37859 11.5406C8.42123 11.4972 8.45217 11.4353 8.44801 11.4033C8.42357 11.2099 8.40797 11.1594 8.37027 11.1571C8.36489 11.1568 8.3595 11.1576 8.35446 11.1595C8.34941 11.1614 8.34481 11.1643 8.34095 11.1681C8.33709 11.1718 8.33405 11.1764 8.33203 11.1814C8.33 11.1864 8.32904 11.1917 8.32919 11.1971C8.32919 11.2447 8.25717 11.2502 8.23039 11.2049C8.22378 11.1959 8.21532 11.1885 8.20559 11.1831C8.19586 11.1776 8.18507 11.1744 8.17397 11.1734C8.12171 11.1701 7.93607 11.038 7.93321 11.0021C7.92827 10.9392 7.82687 10.8513 7.70675 10.8058C7.63655 10.7793 7.54295 10.726 7.49849 10.6867C7.43661 10.6324 7.39657 10.6184 7.32793 10.6269C7.26033 10.6355 7.18233 10.6093 7.01333 10.5219C6.74293 10.3818 6.68365 10.3295 6.70419 10.2489C6.71537 10.2052 6.68781 10.1535 6.59811 10.0531C6.40727 9.83913 6.26739 9.65219 6.23697 9.57029C6.22163 9.52869 6.19537 9.49385 6.17977 9.49307C6.13375 9.49021 6.14597 9.53311 6.21461 9.61735C6.24971 9.66025 6.31003 9.75827 6.34877 9.83523C6.38777 9.91219 6.43587 9.98603 6.45537 9.99981C6.46554 10.0076 6.47393 10.0175 6.47998 10.0288C6.48603 10.0401 6.48961 10.0525 6.49047 10.0653C6.49047 10.088 6.47487 10.1051 6.45537 10.1033C6.40311 10.0989 6.25777 9.95483 6.27675 9.92571C6.28559 9.91193 6.25179 9.86929 6.20109 9.83107C6.1654 9.80457 6.13013 9.77753 6.09527 9.74995C6.08799 9.74371 6.10047 9.72837 6.12283 9.71615C6.15767 9.69639 6.15637 9.68495 6.11321 9.63867C6.08539 9.60903 6.03287 9.52609 5.99699 9.45407C5.95981 9.37945 5.89663 9.30275 5.85061 9.27727C5.75285 9.22267 5.72893 9.19095 5.61193 8.95565C5.52483 8.78093 5.52093 8.75935 5.51755 8.41745C5.51443 8.10181 5.50793 8.05605 5.46009 8.01835C5.29499 7.88731 5.24169 7.81841 5.27549 7.78019C5.30149 7.75003 5.29785 7.72429 5.25859 7.66059C5.23077 7.61639 5.19151 7.56907 5.17071 7.55529C5.14991 7.54151 5.13249 7.49913 5.13249 7.46065C5.12884 7.41454 5.10861 7.37132 5.07555 7.33897C5.04435 7.31037 5.01939 7.27059 5.01939 7.25109C5.01939 7.20221 4.92995 7.09535 4.90213 7.11069C4.88965 7.11771 4.87145 7.08989 4.86131 7.04985C4.85013 7.00409 4.82387 6.97627 4.79033 6.97445C4.76095 6.97237 4.67853 6.92245 4.60703 6.86343C4.51681 6.78907 4.44765 6.75449 4.38005 6.75033C4.32467 6.74695 4.23419 6.71029 4.17023 6.66609C4.10835 6.62293 4.05739 6.59979 4.05739 6.61409C4.05739 6.62865 4.07351 6.64711 4.09301 6.65491C4.12083 6.66583 4.12057 6.67779 4.09093 6.71159C4.07039 6.73525 4.03581 6.74721 4.01423 6.73759C3.99291 6.72797 3.94611 6.73837 3.91075 6.76099C3.80623 6.82755 3.76489 6.81091 3.78543 6.70977L3.80311 6.62189L3.74617 6.69027C3.71497 6.72823 3.69677 6.77841 3.70561 6.80207C3.71445 6.82573 3.70847 6.85277 3.69183 6.86187C3.68305 6.86727 3.67574 6.87474 3.67052 6.88362C3.66531 6.89251 3.66236 6.90254 3.66193 6.91283C3.66245 6.93129 3.67597 6.92479 3.69183 6.89853C3.70769 6.87253 3.73837 6.85199 3.75995 6.85329C3.83067 6.85771 3.79167 6.98589 3.69755 7.05895L3.60655 7.13019L3.61461 7.03061C3.62345 6.91985 3.63099 6.91751 3.42741 7.09093C3.36345 7.14553 3.30079 7.18297 3.28831 7.17413C3.27531 7.16581 3.26543 7.17933 3.26543 7.20429C3.26543 7.22951 3.25269 7.24173 3.23787 7.23159C3.22305 7.22171 3.16585 7.22977 3.11047 7.24953C2.99035 7.29217 2.96825 7.29321 2.96825 7.25863C2.96825 7.23133 3.16689 7.09925 3.20433 7.10159C3.24281 7.10419 3.39933 6.94559 3.41467 6.88891C3.42689 6.84315 3.42117 6.83795 3.37853 6.85797C3.34109 6.87565 3.32315 6.87019 3.31145 6.83925C3.30027 6.80909 3.27089 6.80025 3.21109 6.80857C3.13361 6.81949 3.12763 6.81481 3.13881 6.75345C3.14947 6.69547 3.14011 6.68585 3.07381 6.68221C3.01323 6.67935 2.99659 6.66505 2.99581 6.61617C2.99529 6.58211 2.96461 6.52569 2.92769 6.49137C2.86711 6.43495 2.86373 6.42221 2.89727 6.36189C2.93419 6.29481 3.12503 6.16351 3.17989 6.16689C3.21629 6.16897 3.21811 6.09357 3.18249 6.06939C3.17899 6.06701 3.17504 6.06537 3.17089 6.06457C3.16673 6.06376 3.16246 6.06381 3.15832 6.06471C3.15419 6.06561 3.15028 6.06734 3.14684 6.0698C3.14339 6.07226 3.14048 6.07539 3.13829 6.07901C3.12841 6.09461 3.10501 6.09669 3.08655 6.08343C3.06369 6.06858 3.03803 6.05858 3.01115 6.05405C2.98189 6.05015 2.95268 6.0459 2.92353 6.04131C2.87569 6.03403 2.81277 5.91833 2.81277 5.83721C2.81277 5.78495 2.94693 5.69941 3.02207 5.70409C3.04703 5.70565 3.06731 5.72619 3.06731 5.74933C3.06731 5.77273 3.08603 5.79327 3.10943 5.79457C3.13283 5.79613 3.15259 5.77221 3.15259 5.74075C3.15259 5.70955 3.14011 5.68355 3.12529 5.68225C3.11021 5.68147 3.04105 5.62141 2.97137 5.54939C2.87517 5.45007 2.84813 5.40405 2.86009 5.35881C2.87127 5.31669 2.89805 5.30031 2.95213 5.30343C3.01349 5.30733 3.03793 5.28783 3.07745 5.20099C3.12425 5.09751 3.29715 4.96855 3.36683 4.98519C3.38373 4.98909 3.42039 4.96881 3.44821 4.93995C3.49293 4.89315 3.50723 4.89211 3.57301 4.92929C3.61383 4.95243 3.68221 4.98181 3.72485 4.99481C3.76775 5.00781 3.80311 5.03095 3.80311 5.04603C3.80311 5.06137 3.84185 5.07619 3.88891 5.07905C3.93597 5.08191 4.01995 5.10609 4.07585 5.13287C4.13175 5.15965 4.22613 5.18487 4.28541 5.18877C4.34495 5.19241 4.40033 5.20697 4.40891 5.22127C4.41749 5.23557 4.46767 5.25845 4.52019 5.27145C4.57271 5.28445 4.63797 5.32189 4.66579 5.35439C4.73859 5.43941 4.79319 5.43291 4.98741 5.31539C5.10883 5.24155 5.17669 5.21711 5.21725 5.23245C5.25495 5.24675 5.27263 5.24285 5.26769 5.22023C5.26327 5.20125 5.27575 5.18123 5.29551 5.17499C5.31631 5.16875 5.35011 5.21035 5.37793 5.27561L5.42499 5.38689L5.45411 5.31123C5.48791 5.22257 5.51625 5.21503 5.53575 5.29147C5.54589 5.33073 5.56825 5.34347 5.61739 5.33697C5.65665 5.33177 5.74635 5.36297 5.83033 5.41029C5.90989 5.45527 6.00609 5.49349 6.04353 5.49609C6.07954 5.49854 6.11393 5.51197 6.14207 5.53457L6.19485 5.61777C6.19823 5.62557 6.18289 5.64429 6.15741 5.66197C6.11399 5.69239 6.12101 5.69759 6.21617 5.70409C6.27571 5.70851 6.34799 5.70019 6.37737 5.68641C6.41273 5.66977 6.43613 5.67133 6.44757 5.69109C6.45745 5.70721 6.48397 5.72151 6.50659 5.72307C6.56951 5.68095 6.64699 5.58683 6.83107 5.68667C6.85967 5.68823 6.89009 5.70175 6.89867 5.71631C6.90751 5.73087 6.95821 5.74465 7.01151 5.74647C7.08899 5.74907 7.11057 5.73659 7.12071 5.68485C7.12851 5.64325 7.11967 5.61933 7.09471 5.61777C7.04427 5.61465 7.04531 5.60815 7.11759 5.48985L7.17947 5.38949L7.27255 5.49661C7.33157 5.56447 7.37291 5.59281 7.38513 5.57383C7.39605 5.55693 7.37135 5.51247 7.33079 5.47503C7.27203 5.42095 7.25799 5.38351 7.25929 5.28575C7.26033 5.21867 7.27931 5.13625 7.30193 5.10297C7.33235 5.05851 7.33833 5.00157 7.32429 4.88717C7.29569 4.65837 7.32611 4.55463 7.43557 4.55047ZM7.02815 4.60637C7.05805 4.60351 7.09809 4.60377 7.14957 4.60637L7.25721 4.61157L7.24161 4.71037C7.23095 4.77589 7.23901 4.82399 7.26501 4.85155C7.32039 4.91057 7.30193 5.05721 7.23121 5.11857C7.14879 5.19059 7.10459 5.18019 7.06065 5.07853C7.03985 5.03069 7.00969 4.99065 6.99305 4.98961C6.95145 4.98701 6.88827 4.89419 6.88697 4.83439C6.88593 4.77719 6.94391 4.77225 6.99357 4.82529C7.03725 4.87157 7.03725 4.83595 6.99357 4.75405C6.93949 4.65213 6.93845 4.61469 7.02815 4.60637ZM8.53095 5.77117C8.54472 5.76731 8.55929 5.76731 8.57307 5.77117C8.61077 5.78079 8.62637 5.80965 8.62637 5.86997C8.62637 5.94095 8.61337 5.95473 8.54811 5.95811C8.48311 5.96149 8.47063 5.95161 8.47089 5.89675C8.47141 5.82707 8.49377 5.78235 8.53095 5.77117ZM5.74739 5.91495C5.74306 5.91371 5.73854 5.91335 5.73407 5.91389C5.72961 5.91443 5.7253 5.91585 5.72139 5.91807C5.70267 5.92847 5.70553 5.94355 5.73023 5.96123C5.75467 5.97839 5.75883 5.99555 5.74089 6.00803C5.68629 6.04547 5.63481 6.12139 5.66315 6.12321C5.67901 6.12425 5.69903 6.10761 5.70735 6.08603C5.71567 6.06471 5.76143 6.04131 5.80875 6.03377C5.91847 6.01661 5.95045 5.97111 5.85711 5.96513C5.81811 5.96279 5.77859 5.94771 5.76871 5.93133C5.76391 5.92338 5.7563 5.91754 5.74739 5.91495ZM8.42461 6.49293C8.44645 6.49423 8.47141 6.51529 8.48051 6.53895C8.49689 6.58263 8.44073 6.59641 8.40433 6.55793C8.37261 6.52413 8.38301 6.49033 8.42461 6.49293ZM8.16877 6.56573C8.21349 6.57821 8.21349 6.58393 8.17241 6.64009C8.12925 6.69859 8.04579 6.71991 8.04579 6.67259C8.04579 6.62111 8.12379 6.55351 8.16877 6.56573ZM2.88609 6.57301C2.93861 6.57639 2.95629 6.59017 2.94953 6.62397C2.93939 6.67519 2.90273 6.68975 2.84839 6.66453C2.78339 6.63437 2.81043 6.56833 2.88609 6.57301ZM6.21877 6.60421C6.20447 6.59485 6.16183 6.61565 6.12335 6.65023C6.04093 6.72381 6.08695 6.73915 6.18055 6.66895C6.21617 6.64269 6.23307 6.61357 6.21877 6.60421ZM8.32607 6.65621C8.36611 6.65881 8.37677 6.67389 8.36585 6.71601C8.34895 6.77919 8.31749 6.80441 8.29045 6.77607C8.25015 6.73343 8.27407 6.65283 8.32607 6.65621ZM2.89467 7.28905C2.90767 7.28905 2.91989 7.29243 2.93029 7.29945C2.94537 7.30985 2.93471 7.33377 2.90637 7.35353C2.84033 7.39955 2.81277 7.39825 2.81277 7.34911C2.81277 7.31531 2.85593 7.28853 2.89467 7.28905ZM5.01627 7.41255C5.05865 7.41515 5.07607 7.43413 5.07763 7.47963C5.07893 7.51473 5.08543 7.57245 5.09193 7.60807C5.10623 7.68555 5.09791 7.68737 5.03967 7.61925C5.0102 7.57992 4.98865 7.53524 4.97623 7.48769C4.95959 7.42009 4.96531 7.40969 5.01627 7.41255ZM7.16335 7.65955C7.13787 7.65851 7.13917 7.66683 7.16881 7.68763C7.19221 7.70427 7.20131 7.71779 7.18857 7.71727C7.17609 7.71675 7.17427 7.73001 7.18467 7.74717C7.21119 7.79189 7.23615 7.75939 7.21587 7.70609C7.20677 7.68139 7.18311 7.66085 7.16335 7.65981V7.65955ZM7.83051 8.19515C7.79931 8.19437 7.76941 8.20451 7.72963 8.22557C7.64279 8.27133 7.61991 8.32853 7.69947 8.30071C7.79697 8.26665 7.85027 8.26067 7.84585 8.28511C7.83545 8.33919 7.85053 8.35739 7.89291 8.34387C7.91574 8.33623 7.93956 8.33194 7.96363 8.33113C8.00965 8.33399 7.99093 8.25495 7.93971 8.22973C7.89395 8.20685 7.86171 8.19593 7.83051 8.19515ZM8.09415 8.44397C8.08973 8.45021 8.10117 8.47829 8.12665 8.54095C8.15239 8.60361 8.17657 8.65535 8.18047 8.65561C8.18437 8.65613 8.18749 8.62077 8.18749 8.57787C8.18749 8.53185 8.16565 8.48505 8.13367 8.46321C8.12428 8.45636 8.11446 8.45011 8.10429 8.44449C8.09909 8.44189 8.09571 8.44189 8.09389 8.44397H8.09415ZM7.93919 8.45541C7.93332 8.45537 7.9275 8.45643 7.92203 8.45853C7.87705 8.47309 7.84923 8.55447 7.84871 8.67225C7.84871 8.71853 7.86041 8.74505 7.87679 8.73595C7.89239 8.72711 7.89759 8.68863 7.88797 8.65015H7.88745C7.88268 8.62644 7.88276 8.60201 7.88767 8.57833C7.89259 8.55465 7.90224 8.53221 7.91605 8.51235C7.94283 8.47335 7.95011 8.45697 7.93919 8.45541ZM8.24079 8.46165C8.22519 8.46061 8.21999 8.47335 8.22961 8.48947C8.23923 8.50559 8.26029 8.51963 8.27589 8.52067C8.29149 8.52145 8.29617 8.50923 8.28655 8.49311C8.27693 8.47699 8.25639 8.46269 8.24079 8.46165ZM8.41057 9.92675C8.45061 9.92493 8.49897 9.95535 8.49897 9.99435C8.49897 10.0159 8.49247 10.0334 8.48467 10.0328C8.47687 10.0323 8.47037 10.019 8.47037 10.0034C8.47037 9.98785 8.44255 9.97355 8.40849 9.97147C8.36559 9.96887 8.35493 9.95925 8.37469 9.94027C8.38469 9.93169 8.39739 9.92691 8.41057 9.92675ZM3.32237 9.93793C3.33797 9.93871 3.35019 9.95223 3.35019 9.96783C3.35024 9.97145 3.34953 9.97504 3.34811 9.97837C3.34669 9.9817 3.34459 9.98469 3.34195 9.98716C3.33931 9.98964 3.33618 9.99153 3.33276 9.99272C3.32934 9.99391 3.32572 9.99438 3.32211 9.99409C3.31452 9.99351 3.30741 9.99013 3.30217 9.9846C3.29694 9.97908 3.29394 9.9718 3.29377 9.96419C3.29377 9.94859 3.30677 9.93689 3.32237 9.93793ZM3.39439 9.97043C3.44457 9.97355 3.63359 10.1223 3.63359 10.1587C3.63359 10.1691 3.61357 10.1836 3.58991 10.1912C3.56131 10.2005 3.53791 10.1816 3.52075 10.1358C3.50645 10.0978 3.46875 10.0565 3.43703 10.0445C3.38555 10.025 3.35253 9.96783 3.39439 9.97043ZM8.42019 10.0406C8.42437 10.0396 8.42874 10.0395 8.43297 10.0403C8.4372 10.0412 8.44118 10.043 8.44463 10.0456C8.47869 10.069 8.47843 10.1457 8.44411 10.1436C8.42929 10.1425 8.40953 10.128 8.39991 10.1121C8.38249 10.083 8.39705 10.0474 8.41967 10.0409L8.42019 10.0406ZM8.16825 10.1576C8.20127 10.1595 8.24365 10.1701 8.31125 10.1906C8.39887 10.2172 8.47037 10.2471 8.47037 10.2567C8.47037 10.2666 8.54057 10.3097 8.62637 10.3529C8.75611 10.4179 8.78159 10.4426 8.78159 10.5027C8.78159 10.564 8.76885 10.5736 8.69423 10.569C8.64639 10.5661 8.60167 10.558 8.59543 10.5513C8.56865 10.5229 8.58659 10.4917 8.62793 10.4943C8.65211 10.4959 8.66381 10.4837 8.65419 10.4675C8.64457 10.4514 8.59361 10.4358 8.54109 10.4325C8.47973 10.4286 8.43189 10.4065 8.40849 10.3711C8.35909 10.2975 8.18957 10.2494 8.15629 10.2993C8.13601 10.3292 8.12665 10.329 8.10793 10.2983C8.09389 10.2759 8.06321 10.2674 8.03305 10.277C7.95505 10.3022 7.99327 10.2226 8.08037 10.179C8.10703 10.1636 8.13752 10.1562 8.16825 10.1576ZM8.68279 10.2151C8.70619 10.2167 8.72543 10.2294 8.72543 10.244C8.72543 10.2796 8.68097 10.3027 8.65835 10.2785C8.62637 10.2447 8.63885 10.2125 8.68279 10.2151ZM8.73297 10.329C8.76677 10.3344 8.76027 10.3729 8.72387 10.3828C8.70515 10.3877 8.69475 10.3771 8.70099 10.3589C8.70723 10.3407 8.72179 10.3269 8.73297 10.329ZM8.87415 10.4244C8.94435 10.4288 9.06447 10.5086 9.06447 10.5513C9.06447 10.5661 9.02885 10.5757 8.98543 10.5731C8.94175 10.5705 8.89287 10.5806 8.87727 10.5955C8.86141 10.6103 8.83957 10.6129 8.82891 10.6015C8.81851 10.5903 8.80967 10.545 8.80967 10.5011C8.80967 10.4363 8.82215 10.421 8.87415 10.4244ZM8.46777 10.4873C8.48319 10.4878 8.49838 10.4912 8.51249 10.4975C8.53589 10.5079 8.55513 10.5297 8.55513 10.5458C8.55513 10.5833 8.42305 10.5749 8.39991 10.5359C8.38327 10.5081 8.42279 10.486 8.46777 10.4873ZM9.15651 10.5325C9.19135 10.5396 9.21995 10.558 9.21995 10.5736C9.21995 10.5892 9.19135 10.6043 9.15651 10.6072C9.11257 10.6105 9.09307 10.5973 9.09307 10.5656C9.09307 10.5336 9.11257 10.5234 9.15651 10.5325ZM9.75425 16.901C9.81431 16.9046 9.81405 16.9826 9.75373 16.9909C9.70953 16.9967 9.63413 17.1667 9.57433 17.3955C9.49477 17.897 9.53143 18.2109 9.69237 18.4553C9.97967 18.7803 11.5228 19.0985 11.9089 19.7098C10.9138 19.3855 7.98547 18.922 6.95067 18.8201L6.93273 18.6864C6.91999 18.5931 6.92519 18.5463 6.94989 18.532C6.97381 18.5184 6.96471 18.5106 6.92207 18.5078C6.88697 18.5052 6.85655 18.4935 6.85499 18.4818C6.82743 18.2816 6.83861 18.2442 6.93741 18.2091C6.99149 18.1898 7.08171 18.182 7.13787 18.1919C7.19403 18.2015 7.25409 18.1989 7.27151 18.1856C7.29283 18.1695 7.31545 18.1914 7.33989 18.2522C7.37499 18.339 7.38071 18.3422 7.50629 18.3326C7.71897 18.3159 7.82843 18.3284 7.97013 18.3853C8.16565 18.4638 8.47011 18.4732 8.42617 18.3996C8.41759 18.3851 8.44333 18.3752 8.48337 18.3778C8.52393 18.3804 8.56397 18.3994 8.57151 18.4199C8.57931 18.4404 8.61311 18.4607 8.64769 18.4654C8.68452 18.4717 8.71784 18.4911 8.74155 18.52C8.79147 18.5913 8.80239 18.5762 8.78367 18.4605C8.77145 18.384 8.75091 18.3497 8.71061 18.3401C8.65003 18.3258 8.58373 18.252 8.58373 18.1989C8.58373 18.1807 8.61233 18.1547 8.64717 18.1404L8.71113 18.1144L8.63989 18.0822C8.57879 18.0536 8.57593 18.0471 8.61857 18.0323C8.65393 18.0203 8.66329 17.9961 8.65107 17.947C8.63859 17.8965 8.64795 17.8742 8.68669 17.8622C8.72231 17.8492 8.75468 17.8286 8.78159 17.8019C8.80499 17.7775 8.85023 17.7452 8.88221 17.7301C8.92953 17.708 8.94643 17.7135 8.97477 17.7603C9.00857 17.817 9.00935 17.8167 9.06837 17.7655C9.12011 17.7205 9.12583 17.6935 9.10997 17.5708C9.09333 17.446 9.09853 17.4251 9.14897 17.4012C9.18017 17.3862 9.20617 17.3581 9.20617 17.3383C9.20617 17.3183 9.23139 17.2762 9.26259 17.2447C9.29379 17.2135 9.31953 17.1805 9.31953 17.1719C9.31953 17.1464 9.43029 17.0505 9.45811 17.0523C9.47241 17.0531 9.48853 17.044 9.49373 17.032C9.50933 16.9962 9.70433 16.8979 9.75425 16.901ZM5.47023 18.3549L5.73725 18.4605C5.93693 18.5392 6.03079 18.5634 6.10593 18.5541C6.16703 18.5463 6.20759 18.5525 6.20759 18.5697C6.20759 18.5853 6.26245 18.6092 6.32953 18.6235C6.40259 18.6391 6.47305 18.6755 6.50633 18.7153L6.56977 18.721C6.57497 18.6838 6.60565 18.6555 6.64881 18.6474C6.73825 18.6305 6.78193 18.6596 6.76477 18.7251C6.75697 18.7532 6.76581 18.8073 6.78349 18.8154C5.93121 18.7166 5.37273 18.6552 4.58805 18.7062C4.61145 18.6924 4.74353 18.6266 4.80463 18.63C4.86963 18.6339 4.96323 18.6118 5.03213 18.5756C5.09609 18.5421 5.19593 18.5088 5.25391 18.5016C5.31579 18.4938 5.38261 18.4605 5.41511 18.4215L5.47023 18.3549Z" fill="#CCCCCC"/>
</g>
<defs>
<clipPath id="clip0_18_578">
<rect width="26" height="26" fill="white"/>
</clipPath>
</defs>
</svg>
