<svg width="28" height="28" viewBox="0 0 26 26" fill="none" xmlns="http://www.w3.org/2000/svg">
<g clip-path="url(#clip0_18_535)">
<path d="M21.6667 3.25H5.41667C4.84203 3.25 4.29093 3.47827 3.8846 3.8846C3.47827 4.29093 3.25 4.84203 3.25 5.41667V11.9167H7.58333V9.75L11.9167 13L7.58333 16.25V14.0833H3.25V20.5833C3.25 21.158 3.47827 21.7091 3.8846 22.1154C4.29093 22.5217 4.84203 22.75 5.41667 22.75H21.6667C22.2413 22.75 22.7924 22.5217 23.1987 22.1154C23.6051 21.7091 23.8333 21.158 23.8333 20.5833V5.41667C23.8333 4.84203 23.6051 4.29093 23.1987 3.8846C22.7924 3.47827 22.2413 3.25 21.6667 3.25ZM18.4167 18.4167H14.0833V16.25H18.4167V18.4167ZM21.6667 14.0833H14.0833V11.9167H21.6667V14.0833ZM21.6667 9.75H14.0833V7.58333H21.6667V9.75ZM3.25 14.0833H0V11.9167H3.25V14.0833Z" fill="currentColor"/>
</g>
<defs>
<clipPath id="clip0_18_535">
<rect width="26" height="26" fill="white"/>
</clipPath>
</defs>
</svg>
