<svg width="26" height="26" viewBox="0 0 18 22" fill="currentColor" xmlns="http://www.w3.org/2000/svg">
<path d="M0.333252 11C0.333252 11.2873 0.447389 11.5628 0.650553 11.766C0.853718 11.9692 1.12927 12.0833 1.41659 12.0833H9.63909L7.14742 14.5641C7.04588 14.6648 6.96529 14.7847 6.91029 14.9167C6.85529 15.0487 6.82697 15.1903 6.82697 15.3333C6.82697 15.4763 6.85529 15.6179 6.91029 15.7499C6.96529 15.8819 7.04588 16.0017 7.14742 16.1025C7.24813 16.204 7.36795 16.2846 7.49996 16.3396C7.63197 16.3946 7.77357 16.4229 7.91659 16.4229C8.0596 16.4229 8.2012 16.3946 8.33321 16.3396C8.46522 16.2846 8.58504 16.204 8.68575 16.1025L13.0191 11.7691C13.1177 11.6661 13.195 11.5446 13.2466 11.4116C13.3549 11.1479 13.3549 10.852 13.2466 10.5883C13.195 10.4553 13.1177 10.3338 13.0191 10.2308L8.68575 5.89746C8.58474 5.79645 8.46483 5.71633 8.33286 5.66166C8.20088 5.607 8.05943 5.57886 7.91659 5.57886C7.77374 5.57886 7.63229 5.607 7.50032 5.66166C7.36834 5.71633 7.24843 5.79645 7.14742 5.89746C7.04641 5.99847 6.96629 6.11838 6.91162 6.25036C6.85696 6.38233 6.82882 6.52378 6.82882 6.66663C6.82882 6.80947 6.85696 6.95092 6.91162 7.0829C6.96629 7.21487 7.04641 7.33478 7.14742 7.43579L9.63909 9.91663H1.41659C1.12927 9.91663 0.853718 10.0308 0.650553 10.2339C0.447389 10.4371 0.333252 10.7126 0.333252 11ZM14.4166 0.166626H3.58325C2.7213 0.166626 1.89465 0.509036 1.28516 1.11853C0.675662 1.72802 0.333252 2.55467 0.333252 3.41663V6.66663C0.333252 6.95394 0.447389 7.22949 0.650553 7.43266C0.853718 7.63582 1.12927 7.74996 1.41659 7.74996C1.7039 7.74996 1.97945 7.63582 2.18262 7.43266C2.38578 7.22949 2.49992 6.95394 2.49992 6.66663V3.41663C2.49992 3.12931 2.61406 2.85376 2.81722 2.65059C3.02038 2.44743 3.29593 2.33329 3.58325 2.33329H14.4166C14.7039 2.33329 14.9795 2.44743 15.1826 2.65059C15.3858 2.85376 15.4999 3.12931 15.4999 3.41663V18.5833C15.4999 18.8706 15.3858 19.1462 15.1826 19.3493C14.9795 19.5525 14.7039 19.6666 14.4166 19.6666H3.58325C3.29593 19.6666 3.02038 19.5525 2.81722 19.3493C2.61406 19.1462 2.49992 18.8706 2.49992 18.5833V15.3333C2.49992 15.046 2.38578 14.7704 2.18262 14.5673C1.97945 14.3641 1.7039 14.25 1.41659 14.25C1.12927 14.25 0.853718 14.3641 0.650553 14.5673C0.447389 14.7704 0.333252 15.046 0.333252 15.3333V18.5833C0.333252 19.4452 0.675662 20.2719 1.28516 20.8814C1.89465 21.4909 2.7213 21.8333 3.58325 21.8333H14.4166C15.2785 21.8333 16.1052 21.4909 16.7147 20.8814C17.3242 20.2719 17.6666 19.4452 17.6666 18.5833V3.41663C17.6666 2.55467 17.3242 1.72802 16.7147 1.11853C16.1052 0.509036 15.2785 0.166626 14.4166 0.166626Z" fill="currentColor"/>
</svg>
